<svg width="1440" height="5514" viewBox="0 0 1440 5514" fill="none" xmlns="http://www.w3.org/2000/svg">
<g clip-path="url(#clip0_156_3)">
<rect y="953" width="1440" height="4727" fill="#E6D2C0"/>
<ellipse cx="368.041" cy="2035.5" rx="25.8153" ry="65.0382" transform="rotate(-15 368.041 2035.5)" fill="#FF0A81"/>
<ellipse cx="323.756" cy="2160.88" rx="26.1679" ry="65.0382" transform="rotate(-134.59 323.756 2160.88)" fill="#FF0A81"/>
<ellipse cx="419.076" cy="2188.81" rx="22.3395" ry="65.0382" transform="rotate(-26.7939 419.076 2188.81)" fill="#FF0A81"/>
<ellipse cx="370.772" cy="2188.81" rx="25.4679" ry="65.0382" transform="rotate(13.5243 370.772 2188.81)" fill="#FF0A81"/>
<ellipse cx="421.683" cy="2036.53" rx="29.7883" ry="65.0382" transform="rotate(15 421.683 2036.53)" fill="#FF0A81"/>
<ellipse cx="460.903" cy="2072.35" rx="27.6959" ry="65.0382" transform="rotate(48.9836 460.903 2072.35)" fill="#FF0A81"/>
<ellipse cx="319.628" cy="2067.02" rx="27.4126" ry="65.0382" transform="rotate(-57.2362 319.628 2067.02)" fill="#FF0A81"/>
<ellipse cx="470" cy="2122" rx="25" ry="65" transform="rotate(90 470 2122)" fill="#FF0A81"/>
<ellipse cx="311" cy="2115" rx="23" ry="65" transform="rotate(-90 311 2115)" fill="#FF0A81"/>
<ellipse cx="460.845" cy="2167.28" rx="25.7269" ry="65.0382" transform="rotate(-60 460.845 2167.28)" fill="#FF0A81"/>
<circle cx="394" cy="2113" r="34" fill="#731094"/>
<path d="M996.594 5087C996.594 5099 937.594 4897 989.094 4818C1040.59 4739 1112.09 4674.5 1225.09 4688.5C1338.09 4702.5 1404.09 4634 1447.59 4598.5C1491.09 4563 1559.09 4329 1559.09 4329" stroke="#FF0A81" stroke-width="100"/>
<path d="M1086.78 5087.56C1086.78 5097.89 1030.68 4923.99 1079.65 4855.98C1128.62 4787.97 1196.6 4732.44 1304.03 4744.49C1411.47 4756.54 1474.22 4697.57 1515.58 4667.01C1556.94 4636.45 1621.59 4435 1621.59 4435" stroke="#47ABC2" stroke-width="100"/>
<path d="M1157.78 5147.56C1157.78 5157.89 1101.68 4983.99 1150.65 4915.98C1199.62 4847.97 1267.6 4792.44 1375.03 4804.49C1482.47 4816.54 1545.22 4757.57 1586.58 4727.01C1627.94 4696.45 1692.59 4495 1692.59 4495" stroke="#D3E723" stroke-width="100"/>
<path d="M1217.78 5218.56C1217.78 5228.89 1161.68 5054.99 1210.65 4986.98C1259.62 4918.97 1327.6 4863.44 1435.03 4875.49C1542.47 4887.54 1605.22 4828.57 1646.58 4798.01C1687.94 4767.45 1752.59 4566 1752.59 4566" stroke="#731094" stroke-width="100"/>
<path d="M1260.6 5305.57C1260.6 5315.72 1209 5144.75 1254.04 5077.89C1299.09 5011.02 1361.63 4956.43 1460.46 4968.28C1559.3 4980.13 1617.02 4922.15 1655.07 4892.1C1693.12 4862.06 1752.59 4664 1752.59 4664" stroke="#731094" stroke-width="100"/>
<path d="M-41 3300C-41 3300 91 3476 126.5 3578.5C162 3681 126.5 3710.5 126.5 3808C126.5 3905.5 162 4035 162 4035C162 4035 185.5 4110.5 194 4164.5C202.5 4218.5 186 4294 145.5 4337.5C105 4381 -41 4445.5 -41 4445.5" stroke="#FF0A81" stroke-width="100"/>
<path d="M-109 3298C-109 3298 23 3474 58.5 3576.5C94 3679 58.5 3708.5 58.5 3806C58.5 3903.5 94 4033 94 4033C94 4033 117.5 4108.5 126 4162.5C134.5 4216.5 118 4292 77.5 4335.5C37 4379 -109 4443.5 -109 4443.5" stroke="#47ABC2" stroke-width="100"/>
<path d="M-189 3287C-189 3287 -57 3463 -21.5 3565.5C14 3668 -21.5 3697.5 -21.5 3795C-21.5 3892.5 14 4022 14 4022C14 4022 37.5 4097.5 46 4151.5C54.5 4205.5 38 4281 -2.49998 4324.5C-43 4368 -189 4432.5 -189 4432.5" stroke="#731094" stroke-width="100"/>
<ellipse cx="191.041" cy="2775.5" rx="25.8153" ry="65.0382" transform="rotate(-15 191.041 2775.5)" fill="#D3E723"/>
<ellipse cx="146.756" cy="2900.88" rx="26.1679" ry="65.0382" transform="rotate(-134.59 146.756 2900.88)" fill="#D3E723"/>
<ellipse cx="242.076" cy="2928.81" rx="22.3395" ry="65.0382" transform="rotate(-26.7939 242.076 2928.81)" fill="#D3E723"/>
<ellipse cx="193.772" cy="2928.81" rx="25.4679" ry="65.0382" transform="rotate(13.5243 193.772 2928.81)" fill="#D3E723"/>
<ellipse cx="244.683" cy="2776.53" rx="29.7883" ry="65.0382" transform="rotate(15 244.683 2776.53)" fill="#D3E723"/>
<ellipse cx="283.903" cy="2812.35" rx="27.6959" ry="65.0382" transform="rotate(48.9836 283.903 2812.35)" fill="#D3E723"/>
<ellipse cx="142.628" cy="2807.02" rx="27.4126" ry="65.0382" transform="rotate(-57.2362 142.628 2807.02)" fill="#D3E723"/>
<ellipse cx="293" cy="2862" rx="25" ry="65" transform="rotate(90 293 2862)" fill="#D3E723"/>
<ellipse cx="134" cy="2855" rx="23" ry="65" transform="rotate(-90 134 2855)" fill="#D3E723"/>
<ellipse cx="283.845" cy="2907.28" rx="25.7269" ry="65.0382" transform="rotate(-60 283.845 2907.28)" fill="#D3E723"/>
<circle cx="217" cy="2853" r="34" fill="#47ABC2"/>
<ellipse cx="1355.04" cy="4019.5" rx="25.8153" ry="65.0382" transform="rotate(-15 1355.04 4019.5)" fill="#FF0A81"/>
<ellipse cx="1310.76" cy="4144.88" rx="26.1679" ry="65.0382" transform="rotate(-134.59 1310.76 4144.88)" fill="#FF0A81"/>
<ellipse cx="1406.08" cy="4172.81" rx="22.3395" ry="65.0382" transform="rotate(-26.7939 1406.08 4172.81)" fill="#FF0A81"/>
<ellipse cx="1357.77" cy="4172.81" rx="25.4679" ry="65.0382" transform="rotate(13.5243 1357.77 4172.81)" fill="#FF0A81"/>
<ellipse cx="1408.68" cy="4020.53" rx="29.7883" ry="65.0382" transform="rotate(15 1408.68 4020.53)" fill="#FF0A81"/>
<ellipse cx="1447.9" cy="4056.35" rx="27.6959" ry="65.0382" transform="rotate(48.9836 1447.9 4056.35)" fill="#FF0A81"/>
<ellipse cx="1306.63" cy="4051.02" rx="27.4126" ry="65.0382" transform="rotate(-57.2362 1306.63 4051.02)" fill="#FF0A81"/>
<ellipse cx="1457" cy="4106" rx="25" ry="65" transform="rotate(90 1457 4106)" fill="#FF0A81"/>
<ellipse cx="1298" cy="4099" rx="23" ry="65" transform="rotate(-90 1298 4099)" fill="#FF0A81"/>
<ellipse cx="1447.85" cy="4151.28" rx="25.7269" ry="65.0382" transform="rotate(-60 1447.85 4151.28)" fill="#FF0A81"/>
<circle cx="1381" cy="4097" r="34" fill="#731094"/>
<ellipse cx="12.8032" cy="62.4571" rx="12.8032" ry="62.4571" transform="matrix(0.969922 -0.243417 0.275048 0.96143 1028.49 2638.15)" fill="white"/>
<ellipse cx="12.4495" cy="64.3344" rx="12.4495" ry="64.3344" transform="matrix(-0.724953 -0.688798 0.734724 -0.678366 986.743 2875.81)" fill="white"/>
<ellipse cx="12.6948" cy="63.044" rx="12.6948" ry="63.044" transform="matrix(0.903979 -0.427576 0.474589 0.880207 1081.11 2787.83)" fill="white"/>
<ellipse cx="12.8398" cy="62.2563" rx="12.8398" ry="62.2563" transform="matrix(0.990861 0.134884 -0.153341 0.988173 1070.3 2786.5)" fill="white"/>
<ellipse cx="12.8032" cy="62.4571" rx="12.8032" ry="62.4571" transform="matrix(0.969922 0.243417 -0.275049 0.96143 1115.47 2628)" fill="white"/>
<ellipse cx="12.3988" cy="64.5951" rx="12.3988" ry="64.5951" transform="matrix(0.680483 0.732763 -0.775294 0.6316 1187.85 2670)" fill="white"/>
<ellipse cx="12.2855" cy="65.1695" rx="12.2855" ry="65.1695" transform="matrix(0.566314 -0.82419 0.856444 0.516239 947.763 2699.22)" fill="white"/>
<ellipse cx="1163.63" cy="2770.53" rx="12.0412" ry="66.3735" transform="rotate(90 1163.63 2770.53)" fill="white"/>
<ellipse cx="1003.37" cy="2772.21" rx="12.0412" ry="66.3735" transform="rotate(-90 1003.37 2772.21)" fill="white"/>
<ellipse cx="12.25" cy="65.3471" rx="12.25" ry="65.3471" transform="matrix(0.524738 -0.851264 0.879628 0.475663 1099.05 2789.99)" fill="white"/>
<ellipse cx="1087.69" cy="2769.69" rx="34.6816" ry="32.4833" fill="#FDE85D"/>
<ellipse cx="12.8032" cy="62.4571" rx="12.8032" ry="62.4571" transform="matrix(0.969922 -0.243417 0.275048 0.96143 18.4878 4635.15)" fill="white"/>
<ellipse cx="12.4495" cy="64.3344" rx="12.4495" ry="64.3344" transform="matrix(-0.724953 -0.688798 0.734724 -0.678366 -23.2573 4872.81)" fill="white"/>
<ellipse cx="12.6948" cy="63.044" rx="12.6948" ry="63.044" transform="matrix(0.903979 -0.427576 0.474589 0.880207 71.1084 4784.83)" fill="white"/>
<ellipse cx="12.8398" cy="62.2563" rx="12.8398" ry="62.2563" transform="matrix(0.990861 0.134884 -0.153341 0.988173 60.3027 4783.5)" fill="white"/>
<ellipse cx="12.8032" cy="62.4571" rx="12.8032" ry="62.4571" transform="matrix(0.969922 0.243417 -0.275049 0.96143 105.465 4625)" fill="white"/>
<ellipse cx="12.3988" cy="64.5951" rx="12.3988" ry="64.5951" transform="matrix(0.680483 0.732763 -0.775294 0.6316 177.846 4667)" fill="white"/>
<ellipse cx="12.2855" cy="65.1695" rx="12.2855" ry="65.1695" transform="matrix(0.566314 -0.82419 0.856444 0.516239 -62.2368 4696.22)" fill="white"/>
<ellipse cx="153.627" cy="4767.53" rx="12.0412" ry="66.3735" transform="rotate(90 153.627 4767.53)" fill="white"/>
<ellipse cx="-6.62653" cy="4769.21" rx="12.0412" ry="66.3735" transform="rotate(-90 -6.62653 4769.21)" fill="white"/>
<ellipse cx="12.25" cy="65.3471" rx="12.25" ry="65.3471" transform="matrix(0.524738 -0.851264 0.879628 0.475663 89.0469 4786.99)" fill="white"/>
<ellipse cx="77.6855" cy="4766.69" rx="34.6816" ry="32.4833" fill="#FDE85D"/>
<ellipse cx="630.041" cy="4511.5" rx="25.8153" ry="65.0382" transform="rotate(-15 630.041 4511.5)" fill="#D3E723"/>
<ellipse cx="585.756" cy="4636.88" rx="26.1679" ry="65.0382" transform="rotate(-134.59 585.756 4636.88)" fill="#D3E723"/>
<ellipse cx="681.076" cy="4664.81" rx="22.3395" ry="65.0382" transform="rotate(-26.7939 681.076 4664.81)" fill="#D3E723"/>
<ellipse cx="632.772" cy="4664.81" rx="25.4679" ry="65.0382" transform="rotate(13.5243 632.772 4664.81)" fill="#D3E723"/>
<ellipse cx="683.683" cy="4512.53" rx="29.7883" ry="65.0382" transform="rotate(15 683.683 4512.53)" fill="#D3E723"/>
<ellipse cx="722.903" cy="4548.35" rx="27.6959" ry="65.0382" transform="rotate(48.9836 722.903 4548.35)" fill="#D3E723"/>
<ellipse cx="581.628" cy="4543.02" rx="27.4126" ry="65.0382" transform="rotate(-57.2362 581.628 4543.02)" fill="#D3E723"/>
<ellipse cx="732" cy="4598" rx="25" ry="65" transform="rotate(90 732 4598)" fill="#D3E723"/>
<ellipse cx="573" cy="4591" rx="23" ry="65" transform="rotate(-90 573 4591)" fill="#D3E723"/>
<ellipse cx="722.845" cy="4643.28" rx="25.7269" ry="65.0382" transform="rotate(-60 722.845 4643.28)" fill="#D3E723"/>
<circle cx="656" cy="4589" r="34" fill="#47ABC2"/>
<ellipse cx="12.8032" cy="62.4571" rx="12.8032" ry="62.4571" transform="matrix(0.969922 -0.243417 0.275048 0.96143 659.488 3234.15)" fill="#47ABC2"/>
<ellipse cx="12.4495" cy="64.3344" rx="12.4495" ry="64.3344" transform="matrix(-0.724953 -0.688798 0.734724 -0.678366 617.743 3471.81)" fill="#47ABC2"/>
<ellipse cx="12.6948" cy="63.044" rx="12.6948" ry="63.044" transform="matrix(0.903979 -0.427576 0.474589 0.880207 712.108 3383.83)" fill="#47ABC2"/>
<ellipse cx="12.8398" cy="62.2563" rx="12.8398" ry="62.2563" transform="matrix(0.990861 0.134884 -0.153341 0.988173 701.303 3382.5)" fill="#47ABC2"/>
<ellipse cx="12.8032" cy="62.4571" rx="12.8032" ry="62.4571" transform="matrix(0.969922 0.243417 -0.275049 0.96143 746.465 3224)" fill="#47ABC2"/>
<ellipse cx="12.3988" cy="64.5951" rx="12.3988" ry="64.5951" transform="matrix(0.680483 0.732763 -0.775294 0.6316 818.846 3266)" fill="#47ABC2"/>
<ellipse cx="12.2855" cy="65.1695" rx="12.2855" ry="65.1695" transform="matrix(0.566314 -0.82419 0.856444 0.516239 578.763 3295.22)" fill="#47ABC2"/>
<ellipse cx="794.627" cy="3366.53" rx="12.0412" ry="66.3735" transform="rotate(90 794.627 3366.53)" fill="#47ABC2"/>
<ellipse cx="634.373" cy="3368.21" rx="12.0412" ry="66.3735" transform="rotate(-90 634.373 3368.21)" fill="#47ABC2"/>
<ellipse cx="12.25" cy="65.3471" rx="12.25" ry="65.3471" transform="matrix(0.524738 -0.851264 0.879628 0.475663 730.047 3385.99)" fill="#47ABC2"/>
<ellipse cx="718.686" cy="3365.69" rx="34.6816" ry="32.4833" fill="#FDE85D"/>
<ellipse cx="368.041" cy="2035.5" rx="25.8153" ry="65.0382" transform="rotate(-15 368.041 2035.5)" fill="#FF0A81"/>
<ellipse cx="323.756" cy="2160.88" rx="26.1679" ry="65.0382" transform="rotate(-134.59 323.756 2160.88)" fill="#FF0A81"/>
<ellipse cx="419.076" cy="2188.81" rx="22.3395" ry="65.0382" transform="rotate(-26.7939 419.076 2188.81)" fill="#FF0A81"/>
<ellipse cx="370.772" cy="2188.81" rx="25.4679" ry="65.0382" transform="rotate(13.5243 370.772 2188.81)" fill="#FF0A81"/>
<ellipse cx="421.683" cy="2036.53" rx="29.7883" ry="65.0382" transform="rotate(15 421.683 2036.53)" fill="#FF0A81"/>
<ellipse cx="460.903" cy="2072.35" rx="27.6959" ry="65.0382" transform="rotate(48.9836 460.903 2072.35)" fill="#FF0A81"/>
<ellipse cx="319.628" cy="2067.02" rx="27.4126" ry="65.0382" transform="rotate(-57.2362 319.628 2067.02)" fill="#FF0A81"/>
<ellipse cx="470" cy="2122" rx="25" ry="65" transform="rotate(90 470 2122)" fill="#FF0A81"/>
<ellipse cx="311" cy="2115" rx="23" ry="65" transform="rotate(-90 311 2115)" fill="#FF0A81"/>
<ellipse cx="460.845" cy="2167.28" rx="25.7269" ry="65.0382" transform="rotate(-60 460.845 2167.28)" fill="#FF0A81"/>
<circle cx="394" cy="2113" r="34" fill="#731094"/>
<path d="M996.594 5087C996.594 5099 937.594 4897 989.094 4818C1040.59 4739 1112.09 4674.5 1225.09 4688.5C1338.09 4702.5 1404.09 4634 1447.59 4598.5C1491.09 4563 1559.09 4329 1559.09 4329" stroke="#FF0A81" stroke-width="100"/>
<ellipse cx="12.8032" cy="62.4571" rx="12.8032" ry="62.4571" transform="matrix(0.969922 -0.243417 0.275048 0.96143 1028.49 2638.15)" fill="white"/>
<ellipse cx="12.4495" cy="64.3344" rx="12.4495" ry="64.3344" transform="matrix(-0.724953 -0.688798 0.734724 -0.678366 986.743 2875.81)" fill="white"/>
<ellipse cx="12.6948" cy="63.044" rx="12.6948" ry="63.044" transform="matrix(0.903979 -0.427576 0.474589 0.880207 1081.11 2787.83)" fill="white"/>
<ellipse cx="12.8398" cy="62.2563" rx="12.8398" ry="62.2563" transform="matrix(0.990861 0.134884 -0.153341 0.988173 1070.3 2786.5)" fill="white"/>
<ellipse cx="12.8032" cy="62.4571" rx="12.8032" ry="62.4571" transform="matrix(0.969922 0.243417 -0.275049 0.96143 1115.47 2628)" fill="white"/>
<ellipse cx="12.3988" cy="64.5951" rx="12.3988" ry="64.5951" transform="matrix(0.680483 0.732763 -0.775294 0.6316 1187.85 2670)" fill="white"/>
<ellipse cx="12.2855" cy="65.1695" rx="12.2855" ry="65.1695" transform="matrix(0.566314 -0.82419 0.856444 0.516239 947.763 2699.22)" fill="white"/>
<ellipse cx="1163.63" cy="2770.53" rx="12.0412" ry="66.3735" transform="rotate(90 1163.63 2770.53)" fill="white"/>
<ellipse cx="1003.37" cy="2772.21" rx="12.0412" ry="66.3735" transform="rotate(-90 1003.37 2772.21)" fill="white"/>
<ellipse cx="12.25" cy="65.3471" rx="12.25" ry="65.3471" transform="matrix(0.524738 -0.851264 0.879628 0.475663 1099.05 2789.99)" fill="white"/>
<ellipse cx="1087.69" cy="2769.69" rx="34.6816" ry="32.4833" fill="#FDE85D"/>
<ellipse cx="630.041" cy="4511.5" rx="25.8153" ry="65.0382" transform="rotate(-15 630.041 4511.5)" fill="#D3E723"/>
<ellipse cx="585.756" cy="4636.88" rx="26.1679" ry="65.0382" transform="rotate(-134.59 585.756 4636.88)" fill="#D3E723"/>
<ellipse cx="681.076" cy="4664.81" rx="22.3395" ry="65.0382" transform="rotate(-26.7939 681.076 4664.81)" fill="#D3E723"/>
<ellipse cx="632.772" cy="4664.81" rx="25.4679" ry="65.0382" transform="rotate(13.5243 632.772 4664.81)" fill="#D3E723"/>
<ellipse cx="683.683" cy="4512.53" rx="29.7883" ry="65.0382" transform="rotate(15 683.683 4512.53)" fill="#D3E723"/>
<ellipse cx="722.903" cy="4548.35" rx="27.6959" ry="65.0382" transform="rotate(48.9836 722.903 4548.35)" fill="#D3E723"/>
<ellipse cx="581.628" cy="4543.02" rx="27.4126" ry="65.0382" transform="rotate(-57.2362 581.628 4543.02)" fill="#D3E723"/>
<ellipse cx="732" cy="4598" rx="25" ry="65" transform="rotate(90 732 4598)" fill="#D3E723"/>
<ellipse cx="573" cy="4591" rx="23" ry="65" transform="rotate(-90 573 4591)" fill="#D3E723"/>
<ellipse cx="722.845" cy="4643.28" rx="25.7269" ry="65.0382" transform="rotate(-60 722.845 4643.28)" fill="#D3E723"/>
<circle cx="656" cy="4589" r="34" fill="#47ABC2"/>
<ellipse cx="12.8032" cy="62.4571" rx="12.8032" ry="62.4571" transform="matrix(0.969922 -0.243417 0.275048 0.96143 659.488 3234.15)" fill="#47ABC2"/>
<ellipse cx="12.4495" cy="64.3344" rx="12.4495" ry="64.3344" transform="matrix(-0.724953 -0.688798 0.734724 -0.678366 617.743 3471.81)" fill="#47ABC2"/>
<ellipse cx="12.6948" cy="63.044" rx="12.6948" ry="63.044" transform="matrix(0.903979 -0.427576 0.474589 0.880207 712.108 3383.83)" fill="#47ABC2"/>
<ellipse cx="12.8398" cy="62.2563" rx="12.8398" ry="62.2563" transform="matrix(0.990861 0.134884 -0.153341 0.988173 701.303 3382.5)" fill="#47ABC2"/>
<ellipse cx="12.8032" cy="62.4571" rx="12.8032" ry="62.4571" transform="matrix(0.969922 0.243417 -0.275049 0.96143 746.465 3224)" fill="#47ABC2"/>
<ellipse cx="12.3988" cy="64.5951" rx="12.3988" ry="64.5951" transform="matrix(0.680483 0.732763 -0.775294 0.6316 818.846 3266)" fill="#47ABC2"/>
<ellipse cx="12.2855" cy="65.1695" rx="12.2855" ry="65.1695" transform="matrix(0.566314 -0.82419 0.856444 0.516239 578.763 3295.22)" fill="#47ABC2"/>
<ellipse cx="794.627" cy="3366.53" rx="12.0412" ry="66.3735" transform="rotate(90 794.627 3366.53)" fill="#47ABC2"/>
<ellipse cx="634.373" cy="3368.21" rx="12.0412" ry="66.3735" transform="rotate(-90 634.373 3368.21)" fill="#47ABC2"/>
<ellipse cx="12.25" cy="65.3471" rx="12.25" ry="65.3471" transform="matrix(0.524738 -0.851264 0.879628 0.475663 730.047 3385.99)" fill="#47ABC2"/>
<ellipse cx="718.686" cy="3365.69" rx="34.6816" ry="32.4833" fill="#FDE85D"/>
</g>
<defs>
<clipPath id="clip0_156_3">
<rect width="1440" height="5514" fill="white"/>
</clipPath>
</defs>
</svg>
