<svg width="1447" height="4089" viewBox="0 0 1447 4089" fill="none" xmlns="http://www.w3.org/2000/svg">
<g clip-path="url(#clip0_219_2160)">
<rect width="1447" height="4089" fill="white"/>
<path d="M-55 0H737H1529V4089H-55V0Z" fill="#E6D2C0"/>
<path d="M399.977 1089.82C409.273 1124.52 405.646 1155.64 391.874 1159.33C378.103 1163.02 359.402 1137.88 350.105 1103.18C340.809 1068.49 344.436 1037.37 358.208 1033.68C371.979 1029.99 390.68 1055.13 399.977 1089.82Z" fill="#FF0A81"/>
<path d="M399.977 1089.82C409.273 1124.52 405.646 1155.64 391.874 1159.33C378.103 1163.02 359.402 1137.88 350.105 1103.18C340.809 1068.49 344.436 1037.37 358.208 1033.68C371.979 1029.99 390.68 1055.13 399.977 1089.82Z" stroke="black"/>
<path d="M312.386 1203.24C337.966 1178.02 366.928 1165.92 377.073 1176.22C387.219 1186.51 374.707 1215.29 349.127 1240.51C323.546 1265.73 294.585 1277.83 284.439 1267.53C274.293 1257.24 286.805 1228.46 312.386 1203.24Z" fill="#FF0A81"/>
<path d="M312.386 1203.24C337.966 1178.02 366.928 1165.92 377.073 1176.22C387.219 1186.51 374.707 1215.29 349.127 1240.51C323.546 1265.73 294.585 1277.83 284.439 1267.53C274.293 1257.24 286.805 1228.46 312.386 1203.24Z" stroke="black"/>
<path d="M446.017 1239.74C462.209 1271.8 466.407 1302.3 455.394 1307.87C444.381 1313.43 422.327 1291.94 406.135 1259.88C389.943 1227.82 385.745 1197.32 396.758 1191.76C407.771 1186.19 429.825 1207.68 446.017 1239.74Z" fill="#FF0A81"/>
<path d="M446.017 1239.74C462.209 1271.8 466.407 1302.3 455.394 1307.87C444.381 1313.43 422.327 1291.94 406.135 1259.88C389.943 1227.82 385.745 1197.32 396.758 1191.76C407.771 1186.19 429.825 1207.68 446.017 1239.74Z" stroke="black"/>
<path d="M402.533 1255.77C394.133 1290.69 376.237 1316.33 362.562 1313.04C348.886 1309.76 344.61 1278.78 353.01 1243.85C361.41 1208.93 379.306 1183.29 392.981 1186.57C406.657 1189.86 410.933 1220.84 402.533 1255.77Z" fill="#FF0A81"/>
<path d="M402.533 1255.77C394.133 1290.69 376.237 1316.33 362.562 1313.04C348.886 1309.76 344.61 1278.78 353.01 1243.85C361.41 1208.93 379.306 1183.29 392.981 1186.57C406.657 1189.86 410.933 1220.84 402.533 1255.77Z" stroke="black"/>
<path d="M457.456 1105.24C448.159 1139.94 427.741 1164.61 411.85 1160.35C395.959 1156.1 390.613 1124.52 399.91 1089.82C409.206 1055.13 429.625 1030.45 445.516 1034.71C461.407 1038.97 466.753 1070.55 457.456 1105.24Z" fill="#FF0A81"/>
<path d="M457.456 1105.24C448.159 1139.94 427.741 1164.61 411.85 1160.35C395.959 1156.1 390.613 1124.52 399.91 1089.82C409.206 1055.13 429.625 1030.45 445.516 1034.71C461.407 1038.97 466.753 1070.55 457.456 1105.24Z" stroke="black"/>
<path d="M486.079 1154.25C458.977 1177.82 428.869 1187.58 418.83 1176.04C408.792 1164.49 422.625 1136.03 449.727 1112.46C476.829 1088.88 506.937 1079.13 516.976 1090.67C527.014 1102.21 513.181 1130.68 486.079 1154.25Z" fill="#FF0A81"/>
<path d="M486.079 1154.25C458.977 1177.82 428.869 1187.58 418.83 1176.04C408.792 1164.49 422.625 1136.03 449.727 1112.46C476.829 1088.88 506.937 1079.13 516.976 1090.67C527.014 1102.21 513.181 1130.68 486.079 1154.25Z" stroke="black"/>
<path d="M341.463 1104.97C371.668 1124.41 389.512 1150.49 381.319 1163.22C373.126 1175.95 341.998 1170.51 311.793 1151.07C281.588 1131.63 263.743 1105.56 271.937 1092.82C280.13 1080.09 311.258 1085.53 341.463 1104.97Z" fill="#FF0A81"/>
<path d="M341.463 1104.97C371.668 1124.41 389.512 1150.49 381.319 1163.22C373.126 1175.95 341.998 1170.51 311.793 1151.07C281.588 1131.63 263.743 1105.56 271.937 1092.82C280.13 1080.09 311.258 1085.53 341.463 1104.97Z" stroke="black"/>
<path d="M477 1208C441.101 1208 412 1196.81 412 1183C412 1169.19 441.101 1158 477 1158C512.899 1158 542 1169.19 542 1183C542 1196.81 512.899 1208 477 1208Z" fill="#FF0A81"/>
<path d="M477 1208C441.101 1208 412 1196.81 412 1183C412 1169.19 441.101 1158 477 1158C512.899 1158 542 1169.19 542 1183C542 1196.81 512.899 1208 477 1208Z" stroke="black"/>
<path d="M318 1153C353.899 1153 383 1163.3 383 1176C383 1188.7 353.899 1199 318 1199C282.101 1199 253 1188.7 253 1176C253 1163.3 282.101 1153 318 1153Z" fill="#FF0A81"/>
<path d="M318 1153C353.899 1153 383 1163.3 383 1176C383 1188.7 353.899 1199 318 1199C282.101 1199 253 1188.7 253 1176C253 1163.3 282.101 1153 318 1153Z" stroke="black"/>
<path d="M480.709 1206C511.816 1223.96 531.274 1248.5 524.17 1260.8C517.066 1273.11 486.089 1268.52 454.982 1250.56C423.875 1232.6 404.416 1208.07 411.521 1195.76C418.625 1183.46 449.602 1188.04 480.709 1206Z" fill="#FF0A81"/>
<path d="M480.709 1206C511.816 1223.96 531.274 1248.5 524.17 1260.8C517.066 1273.11 486.089 1268.52 454.982 1250.56C423.875 1232.6 404.416 1208.07 411.521 1195.76C418.625 1183.46 449.602 1188.04 480.709 1206Z" stroke="black"/>
<circle cx="401" cy="1174" r="34" fill="#731094"/>
<circle cx="401" cy="1174" r="34" stroke="black"/>
<rect x="964" y="964" width="10" height="2" fill="#BE5219"/>
<ellipse cx="198.041" cy="1836.5" rx="25.8153" ry="65.0382" transform="rotate(-15 198.041 1836.5)" fill="#D3E723"/>
<ellipse cx="153.756" cy="1961.88" rx="26.1679" ry="65.0382" transform="rotate(-134.59 153.756 1961.88)" fill="#D3E723"/>
<ellipse cx="249.076" cy="1989.81" rx="22.3395" ry="65.0382" transform="rotate(-26.7939 249.076 1989.81)" fill="#D3E723"/>
<ellipse cx="200.771" cy="1989.81" rx="25.4679" ry="65.0382" transform="rotate(13.5243 200.771 1989.81)" fill="#D3E723"/>
<ellipse cx="251.683" cy="1837.53" rx="29.7883" ry="65.0382" transform="rotate(15 251.683 1837.53)" fill="#D3E723"/>
<ellipse cx="290.903" cy="1873.35" rx="27.6959" ry="65.0382" transform="rotate(48.9836 290.903 1873.35)" fill="#D3E723"/>
<ellipse cx="149.628" cy="1868.02" rx="27.4126" ry="65.0382" transform="rotate(-57.2362 149.628 1868.02)" fill="#D3E723"/>
<ellipse cx="300" cy="1923" rx="25" ry="65" transform="rotate(90 300 1923)" fill="#D3E723"/>
<ellipse cx="141" cy="1916" rx="23" ry="65" transform="rotate(-90 141 1916)" fill="#D3E723"/>
<ellipse cx="290.845" cy="1968.28" rx="25.7269" ry="65.0382" transform="rotate(-60 290.845 1968.28)" fill="#D3E723"/>
<circle cx="224" cy="1914" r="34" fill="#47ABC2"/>
<path d="M1077.5 1752.97C1086.99 1786.13 1089.12 1814.41 1082.26 1816.13C1075.4 1817.85 1062.15 1792.37 1052.67 1759.2C1043.18 1726.04 1041.05 1697.76 1047.91 1696.04C1054.76 1694.32 1068.02 1719.8 1077.5 1752.97Z" fill="white"/>
<path d="M1077.5 1752.97C1086.99 1786.13 1089.12 1814.41 1082.26 1816.13C1075.4 1817.85 1062.15 1792.37 1052.67 1759.2C1043.18 1726.04 1041.05 1697.76 1047.91 1696.04C1054.76 1694.32 1068.02 1719.8 1077.5 1752.97Z" stroke="black"/>
<path d="M1022.96 1876.02C1049.07 1851.91 1074.27 1836.21 1079.25 1840.95C1084.24 1845.69 1067.12 1869.06 1041.01 1893.17C1014.91 1917.27 989.702 1932.97 984.717 1928.23C979.733 1923.5 996.854 1900.12 1022.96 1876.02Z" fill="white"/>
<path d="M1022.96 1876.02C1049.07 1851.91 1074.27 1836.21 1079.25 1840.95C1084.24 1845.69 1067.12 1869.06 1041.01 1893.17C1014.91 1917.27 989.702 1932.97 984.717 1928.23C979.733 1923.5 996.854 1900.12 1022.96 1876.02Z" stroke="black"/>
<path d="M1140.98 1893.47C1157.5 1924.11 1165.76 1951.39 1159.42 1954.39C1153.09 1957.38 1134.55 1934.97 1118.03 1904.32C1101.5 1873.68 1093.25 1846.4 1099.58 1843.4C1105.92 1840.41 1124.46 1862.82 1140.98 1893.47Z" fill="white"/>
<path d="M1140.98 1893.47C1157.5 1924.11 1165.76 1951.39 1159.42 1954.39C1153.09 1957.38 1134.55 1934.97 1118.03 1904.32C1101.5 1873.68 1093.25 1846.4 1099.58 1843.4C1105.92 1840.41 1124.46 1862.82 1140.98 1893.47Z" stroke="black"/>
<path d="M1093.2 1912.48C1087.93 1946.46 1077.96 1973.22 1070.93 1972.27C1063.91 1971.31 1062.48 1942.99 1067.76 1909.02C1073.03 1875.04 1083 1848.27 1090.03 1849.23C1097.05 1850.18 1098.47 1878.5 1093.2 1912.48Z" fill="white"/>
<path d="M1093.2 1912.48C1087.93 1946.46 1077.96 1973.22 1070.93 1972.27C1063.91 1971.31 1062.48 1942.99 1067.76 1909.02C1073.03 1875.04 1083 1848.27 1090.03 1849.23C1097.05 1850.18 1098.47 1878.5 1093.2 1912.48Z" stroke="black"/>
<path d="M1130.12 1755.28C1120.64 1788.44 1107.38 1813.93 1100.53 1812.21C1093.67 1810.49 1095.8 1782.21 1105.29 1749.05C1114.77 1715.88 1128.03 1690.4 1134.88 1692.12C1141.74 1693.84 1139.61 1722.12 1130.12 1755.28Z" fill="white"/>
<path d="M1130.12 1755.28C1120.64 1788.44 1107.38 1813.93 1100.53 1812.21C1093.67 1810.49 1095.8 1782.21 1105.29 1749.05C1114.77 1715.88 1128.03 1690.4 1134.88 1692.12C1141.74 1693.84 1139.61 1722.12 1130.12 1755.28Z" stroke="black"/>
<path d="M1161.64 1789.97C1133.98 1812.51 1107.78 1826.7 1103.12 1821.69C1098.46 1816.67 1117.11 1794.33 1144.77 1771.8C1172.42 1749.27 1198.62 1735.07 1203.28 1740.09C1207.94 1745.11 1189.3 1767.44 1161.64 1789.97Z" fill="white"/>
<path d="M1161.64 1789.97C1133.98 1812.51 1107.78 1826.7 1103.12 1821.69C1098.46 1816.67 1117.11 1794.33 1144.77 1771.8C1172.42 1749.27 1198.62 1735.07 1203.28 1740.09C1207.94 1745.11 1189.3 1767.44 1161.64 1789.97Z" stroke="black"/>
<path d="M1024.49 1773.61C1055.32 1792.19 1077.19 1811.78 1073.35 1817.38C1069.51 1822.97 1041.4 1812.44 1010.58 1793.86C979.752 1775.28 957.878 1755.68 961.721 1750.09C965.563 1744.5 993.667 1755.03 1024.49 1773.61Z" fill="white"/>
<path d="M1024.49 1773.61C1055.32 1792.19 1077.19 1811.78 1073.35 1817.38C1069.51 1822.97 1041.4 1812.44 1010.58 1793.86C979.752 1775.28 957.878 1755.68 961.721 1750.09C965.563 1744.5 993.667 1755.03 1024.49 1773.61Z" stroke="black"/>
<path d="M1170.63 1843.58C1133.97 1843.58 1104.25 1838.18 1104.25 1831.53C1104.25 1824.88 1133.97 1819.49 1170.63 1819.49C1207.28 1819.49 1237 1824.88 1237 1831.53C1237 1838.18 1207.28 1843.58 1170.63 1843.58Z" fill="white"/>
<path d="M1170.63 1843.58C1133.97 1843.58 1104.25 1838.18 1104.25 1831.53C1104.25 1824.88 1133.97 1819.49 1170.63 1819.49C1207.28 1819.49 1237 1824.88 1237 1831.53C1237 1838.18 1207.28 1843.58 1170.63 1843.58Z" stroke="black"/>
<path d="M1010.37 1821.17C1047.03 1821.17 1076.75 1826.56 1076.75 1833.21C1076.75 1839.86 1047.03 1845.26 1010.37 1845.26C973.716 1845.26 944 1839.86 944 1833.21C944 1826.56 973.716 1821.17 1010.37 1821.17Z" fill="white"/>
<path d="M1010.37 1821.17C1047.03 1821.17 1076.75 1826.56 1076.75 1833.21C1076.75 1839.86 1047.03 1845.26 1010.37 1845.26C973.716 1845.26 944 1839.86 944 1833.21C944 1826.56 973.716 1821.17 1010.37 1821.17Z" stroke="black"/>
<path d="M1176.38 1861.22C1208.13 1878.38 1230.99 1896.97 1227.44 1902.73C1223.89 1908.49 1195.27 1899.24 1163.53 1882.07C1131.78 1864.91 1108.92 1846.32 1112.47 1840.56C1116.03 1834.8 1144.64 1844.05 1176.38 1861.22Z" fill="white"/>
<path d="M1176.38 1861.22C1208.13 1878.38 1230.99 1896.97 1227.44 1902.73C1223.89 1908.49 1195.27 1899.24 1163.53 1882.07C1131.78 1864.91 1108.92 1846.32 1112.47 1840.56C1116.03 1834.8 1144.64 1844.05 1176.38 1861.22Z" stroke="black"/>
<path d="M1129.37 1830.69C1129.37 1848.63 1113.84 1863.18 1094.69 1863.18C1075.53 1863.18 1060 1848.63 1060 1830.69C1060 1812.75 1075.53 1798.21 1094.69 1798.21C1113.84 1798.21 1129.37 1812.75 1129.37 1830.69Z" fill="#FDE85D"/>
<path d="M1129.37 1830.69C1129.37 1848.63 1113.84 1863.18 1094.69 1863.18C1075.53 1863.18 1060 1848.63 1060 1830.69C1060 1812.75 1075.53 1798.21 1094.69 1798.21C1113.84 1798.21 1129.37 1812.75 1129.37 1830.69Z" stroke="black"/>
<ellipse cx="637.041" cy="3572.5" rx="25.8153" ry="65.0382" transform="rotate(-15 637.041 3572.5)" fill="#D3E723"/>
<ellipse cx="592.756" cy="3697.88" rx="26.1679" ry="65.0382" transform="rotate(-134.59 592.756 3697.88)" fill="#D3E723"/>
<ellipse cx="688.076" cy="3725.81" rx="22.3395" ry="65.0382" transform="rotate(-26.7939 688.076 3725.81)" fill="#D3E723"/>
<ellipse cx="639.771" cy="3725.81" rx="25.4679" ry="65.0382" transform="rotate(13.5243 639.771 3725.81)" fill="#D3E723"/>
<ellipse cx="690.683" cy="3573.53" rx="29.7883" ry="65.0382" transform="rotate(15 690.683 3573.53)" fill="#D3E723"/>
<ellipse cx="729.903" cy="3609.35" rx="27.6959" ry="65.0382" transform="rotate(48.9836 729.903 3609.35)" fill="#D3E723"/>
<ellipse cx="588.628" cy="3604.02" rx="27.4126" ry="65.0382" transform="rotate(-57.2362 588.628 3604.02)" fill="#D3E723"/>
<ellipse cx="739" cy="3659" rx="25" ry="65" transform="rotate(90 739 3659)" fill="#D3E723"/>
<ellipse cx="580" cy="3652" rx="23" ry="65" transform="rotate(-90 580 3652)" fill="#D3E723"/>
<ellipse cx="729.845" cy="3704.28" rx="25.7269" ry="65.0382" transform="rotate(-60 729.845 3704.28)" fill="#D3E723"/>
<circle cx="663" cy="3650" r="34" fill="#47ABC2"/>
<path d="M708.503 2348.97C717.99 2382.13 720.122 2410.41 713.263 2412.13C706.405 2413.85 693.154 2388.37 683.667 2355.2C674.179 2322.04 672.048 2293.76 678.906 2292.04C685.764 2290.32 699.015 2315.8 708.503 2348.97Z" fill="#47ABC2"/>
<path d="M708.503 2348.97C717.99 2382.13 720.122 2410.41 713.263 2412.13C706.405 2413.85 693.154 2388.37 683.667 2355.2C674.179 2322.04 672.048 2293.76 678.906 2292.04C685.764 2290.32 699.015 2315.8 708.503 2348.97Z" stroke="black"/>
<path d="M653.96 2472.02C680.065 2447.91 705.269 2432.21 710.253 2436.95C715.238 2441.69 698.116 2465.06 672.011 2489.17C645.905 2513.27 620.702 2528.97 615.717 2524.23C610.733 2519.5 627.854 2496.12 653.96 2472.02Z" fill="#47ABC2"/>
<path d="M653.96 2472.02C680.065 2447.91 705.269 2432.21 710.253 2436.95C715.238 2441.69 698.116 2465.06 672.011 2489.17C645.905 2513.27 620.702 2528.97 615.717 2524.23C610.733 2519.5 627.854 2496.12 653.96 2472.02Z" stroke="black"/>
<path d="M771.98 2489.47C788.504 2520.11 796.762 2547.39 790.424 2550.39C784.086 2553.38 765.553 2530.97 749.028 2500.32C732.504 2469.68 724.246 2442.4 730.584 2439.4C736.922 2436.41 755.455 2458.82 771.98 2489.47Z" fill="#47ABC2"/>
<path d="M771.98 2489.47C788.504 2520.11 796.762 2547.39 790.424 2550.39C784.086 2553.38 765.553 2530.97 749.028 2500.32C732.504 2469.68 724.246 2442.4 730.584 2439.4C736.922 2436.41 755.455 2458.82 771.98 2489.47Z" stroke="black"/>
<path d="M724.201 2508.48C718.929 2542.46 708.959 2569.22 701.933 2568.27C694.906 2567.31 693.484 2538.99 698.757 2505.02C704.029 2471.04 713.999 2444.27 721.025 2445.23C728.052 2446.18 729.474 2474.5 724.201 2508.48Z" fill="#47ABC2"/>
<path d="M724.201 2508.48C718.929 2542.46 708.959 2569.22 701.933 2568.27C694.906 2567.31 693.484 2538.99 698.757 2505.02C704.029 2471.04 713.999 2444.27 721.025 2445.23C728.052 2446.18 729.474 2474.5 724.201 2508.48Z" stroke="black"/>
<path d="M761.123 2351.28C751.635 2384.44 738.385 2409.93 731.526 2408.21C724.668 2406.49 726.799 2378.21 736.287 2345.05C745.774 2311.88 759.025 2286.4 765.884 2288.12C772.742 2289.84 770.611 2318.12 761.123 2351.28Z" fill="#47ABC2"/>
<path d="M761.123 2351.28C751.635 2384.44 738.385 2409.93 731.526 2408.21C724.668 2406.49 726.799 2378.21 736.287 2345.05C745.774 2311.88 759.025 2286.4 765.884 2288.12C772.742 2289.84 770.611 2318.12 761.123 2351.28Z" stroke="black"/>
<path d="M792.64 2385.97C764.982 2408.51 738.782 2422.7 734.123 2417.69C729.463 2412.67 748.107 2390.33 775.766 2367.8C803.424 2345.27 829.623 2331.07 834.283 2336.09C838.943 2341.11 820.299 2363.44 792.64 2385.97Z" fill="#47ABC2"/>
<path d="M792.64 2385.97C764.982 2408.51 738.782 2422.7 734.123 2417.69C729.463 2412.67 748.107 2390.33 775.766 2367.8C803.424 2345.27 829.623 2331.07 834.283 2336.09C838.943 2341.11 820.299 2363.44 792.64 2385.97Z" stroke="black"/>
<path d="M655.492 2369.61C686.317 2388.19 708.191 2407.78 704.349 2413.38C700.506 2418.97 672.402 2408.44 641.577 2389.86C610.752 2371.28 588.878 2351.68 592.721 2346.09C596.563 2340.5 624.667 2351.03 655.492 2369.61Z" fill="#47ABC2"/>
<path d="M655.492 2369.61C686.317 2388.19 708.191 2407.78 704.349 2413.38C700.506 2418.97 672.402 2408.44 641.577 2389.86C610.752 2371.28 588.878 2351.68 592.721 2346.09C596.563 2340.5 624.667 2351.03 655.492 2369.61Z" stroke="black"/>
<path d="M801.627 2439.58C764.969 2439.58 735.253 2434.18 735.253 2427.53C735.253 2420.88 764.969 2415.49 801.627 2415.49C838.284 2415.49 868 2420.88 868 2427.53C868 2434.18 838.284 2439.58 801.627 2439.58Z" fill="#47ABC2"/>
<path d="M801.627 2439.58C764.969 2439.58 735.253 2434.18 735.253 2427.53C735.253 2420.88 764.969 2415.49 801.627 2415.49C838.284 2415.49 868 2420.88 868 2427.53C868 2434.18 838.284 2439.58 801.627 2439.58Z" stroke="black"/>
<path d="M641.373 2417.17C678.031 2417.17 707.747 2422.56 707.747 2429.21C707.747 2435.86 678.031 2441.26 641.373 2441.26C604.716 2441.26 575 2435.86 575 2429.21C575 2422.56 604.716 2417.17 641.373 2417.17Z" fill="#47ABC2"/>
<path d="M641.373 2417.17C678.031 2417.17 707.747 2422.56 707.747 2429.21C707.747 2435.86 678.031 2441.26 641.373 2441.26C604.716 2441.26 575 2435.86 575 2429.21C575 2422.56 604.716 2417.17 641.373 2417.17Z" stroke="black"/>
<path d="M807.384 2457.22C839.13 2474.38 861.987 2492.97 858.437 2498.73C854.887 2504.49 826.274 2495.24 794.528 2478.07C762.782 2460.91 739.925 2442.32 743.475 2436.56C747.025 2430.8 775.638 2440.05 807.384 2457.22Z" fill="#47ABC2"/>
<path d="M807.384 2457.22C839.13 2474.38 861.987 2492.97 858.437 2498.73C854.887 2504.49 826.274 2495.24 794.528 2478.07C762.782 2460.91 739.925 2442.32 743.475 2436.56C747.025 2430.8 775.638 2440.05 807.384 2457.22Z" stroke="black"/>
<path d="M760.367 2426.69C760.367 2444.63 744.84 2459.18 725.686 2459.18C706.532 2459.18 691.004 2444.63 691.004 2426.69C691.004 2408.75 706.532 2394.21 725.686 2394.21C744.84 2394.21 760.367 2408.75 760.367 2426.69Z" fill="#FDE85D"/>
<path d="M760.367 2426.69C760.367 2444.63 744.84 2459.18 725.686 2459.18C706.532 2459.18 691.004 2444.63 691.004 2426.69C691.004 2408.75 706.532 2394.21 725.686 2394.21C744.84 2394.21 760.367 2408.75 760.367 2426.69Z" stroke="black"/>
<path d="M399.977 1089.82C409.273 1124.52 405.646 1155.64 391.874 1159.33C378.103 1163.02 359.402 1137.88 350.105 1103.18C340.809 1068.49 344.436 1037.37 358.208 1033.68C371.979 1029.99 390.68 1055.13 399.977 1089.82Z" fill="#FF0A81"/>
<path d="M399.977 1089.82C409.273 1124.52 405.646 1155.64 391.874 1159.33C378.103 1163.02 359.402 1137.88 350.105 1103.18C340.809 1068.49 344.436 1037.37 358.208 1033.68C371.979 1029.99 390.68 1055.13 399.977 1089.82Z" stroke="black"/>
<path d="M312.386 1203.24C337.966 1178.02 366.928 1165.92 377.073 1176.22C387.219 1186.51 374.707 1215.29 349.127 1240.51C323.546 1265.73 294.585 1277.83 284.439 1267.53C274.293 1257.24 286.805 1228.46 312.386 1203.24Z" fill="#FF0A81"/>
<path d="M312.386 1203.24C337.966 1178.02 366.928 1165.92 377.073 1176.22C387.219 1186.51 374.707 1215.29 349.127 1240.51C323.546 1265.73 294.585 1277.83 284.439 1267.53C274.293 1257.24 286.805 1228.46 312.386 1203.24Z" stroke="black"/>
<path d="M446.017 1239.74C462.209 1271.8 466.407 1302.3 455.394 1307.87C444.381 1313.43 422.327 1291.94 406.135 1259.88C389.943 1227.82 385.745 1197.32 396.758 1191.76C407.771 1186.19 429.825 1207.68 446.017 1239.74Z" fill="#FF0A81"/>
<path d="M446.017 1239.74C462.209 1271.8 466.407 1302.3 455.394 1307.87C444.381 1313.43 422.327 1291.94 406.135 1259.88C389.943 1227.82 385.745 1197.32 396.758 1191.76C407.771 1186.19 429.825 1207.68 446.017 1239.74Z" stroke="black"/>
<path d="M402.533 1255.77C394.133 1290.69 376.237 1316.33 362.562 1313.04C348.886 1309.76 344.61 1278.78 353.01 1243.85C361.41 1208.93 379.306 1183.29 392.981 1186.57C406.657 1189.86 410.933 1220.84 402.533 1255.77Z" fill="#FF0A81"/>
<path d="M402.533 1255.77C394.133 1290.69 376.237 1316.33 362.562 1313.04C348.886 1309.76 344.61 1278.78 353.01 1243.85C361.41 1208.93 379.306 1183.29 392.981 1186.57C406.657 1189.86 410.933 1220.84 402.533 1255.77Z" stroke="black"/>
<path d="M457.456 1105.24C448.159 1139.94 427.741 1164.61 411.85 1160.35C395.959 1156.1 390.613 1124.52 399.91 1089.82C409.206 1055.13 429.625 1030.45 445.516 1034.71C461.407 1038.97 466.753 1070.55 457.456 1105.24Z" fill="#FF0A81"/>
<path d="M457.456 1105.24C448.159 1139.94 427.741 1164.61 411.85 1160.35C395.959 1156.1 390.613 1124.52 399.91 1089.82C409.206 1055.13 429.625 1030.45 445.516 1034.71C461.407 1038.97 466.753 1070.55 457.456 1105.24Z" stroke="black"/>
<path d="M486.079 1154.25C458.977 1177.82 428.869 1187.58 418.83 1176.04C408.792 1164.49 422.625 1136.03 449.727 1112.46C476.829 1088.88 506.937 1079.13 516.976 1090.67C527.014 1102.21 513.181 1130.68 486.079 1154.25Z" fill="#FF0A81"/>
<path d="M486.079 1154.25C458.977 1177.82 428.869 1187.58 418.83 1176.04C408.792 1164.49 422.625 1136.03 449.727 1112.46C476.829 1088.88 506.937 1079.13 516.976 1090.67C527.014 1102.21 513.181 1130.68 486.079 1154.25Z" stroke="black"/>
<path d="M341.463 1104.97C371.668 1124.41 389.512 1150.49 381.319 1163.22C373.126 1175.95 341.998 1170.51 311.793 1151.07C281.588 1131.63 263.743 1105.56 271.937 1092.82C280.13 1080.09 311.258 1085.53 341.463 1104.97Z" fill="#FF0A81"/>
<path d="M341.463 1104.97C371.668 1124.41 389.512 1150.49 381.319 1163.22C373.126 1175.95 341.998 1170.51 311.793 1151.07C281.588 1131.63 263.743 1105.56 271.937 1092.82C280.13 1080.09 311.258 1085.53 341.463 1104.97Z" stroke="black"/>
<path d="M477 1208C441.101 1208 412 1196.81 412 1183C412 1169.19 441.101 1158 477 1158C512.899 1158 542 1169.19 542 1183C542 1196.81 512.899 1208 477 1208Z" fill="#FF0A81"/>
<path d="M477 1208C441.101 1208 412 1196.81 412 1183C412 1169.19 441.101 1158 477 1158C512.899 1158 542 1169.19 542 1183C542 1196.81 512.899 1208 477 1208Z" stroke="black"/>
<path d="M318 1153C353.899 1153 383 1163.3 383 1176C383 1188.7 353.899 1199 318 1199C282.101 1199 253 1188.7 253 1176C253 1163.3 282.101 1153 318 1153Z" fill="#FF0A81"/>
<path d="M318 1153C353.899 1153 383 1163.3 383 1176C383 1188.7 353.899 1199 318 1199C282.101 1199 253 1188.7 253 1176C253 1163.3 282.101 1153 318 1153Z" stroke="black"/>
<path d="M480.709 1206C511.816 1223.96 531.274 1248.5 524.17 1260.8C517.066 1273.11 486.089 1268.52 454.982 1250.56C423.875 1232.6 404.416 1208.07 411.521 1195.76C418.625 1183.46 449.602 1188.04 480.709 1206Z" fill="#FF0A81"/>
<path d="M480.709 1206C511.816 1223.96 531.274 1248.5 524.17 1260.8C517.066 1273.11 486.089 1268.52 454.982 1250.56C423.875 1232.6 404.416 1208.07 411.521 1195.76C418.625 1183.46 449.602 1188.04 480.709 1206Z" stroke="black"/>
<circle cx="401" cy="1174" r="34" fill="#731094"/>
<circle cx="401" cy="1174" r="34" stroke="black"/>
<rect x="964" y="964" width="10" height="2" fill="#BE5219"/>
<path d="M1077.5 1752.97C1086.99 1786.13 1089.12 1814.41 1082.26 1816.13C1075.4 1817.85 1062.15 1792.37 1052.67 1759.2C1043.18 1726.04 1041.05 1697.76 1047.91 1696.04C1054.76 1694.32 1068.02 1719.8 1077.5 1752.97Z" fill="white"/>
<path d="M1077.5 1752.97C1086.99 1786.13 1089.12 1814.41 1082.26 1816.13C1075.4 1817.85 1062.15 1792.37 1052.67 1759.2C1043.18 1726.04 1041.05 1697.76 1047.91 1696.04C1054.76 1694.32 1068.02 1719.8 1077.5 1752.97Z" stroke="black"/>
<path d="M1022.96 1876.02C1049.07 1851.91 1074.27 1836.21 1079.25 1840.95C1084.24 1845.69 1067.12 1869.06 1041.01 1893.17C1014.91 1917.27 989.702 1932.97 984.717 1928.23C979.733 1923.5 996.854 1900.12 1022.96 1876.02Z" fill="white"/>
<path d="M1022.96 1876.02C1049.07 1851.91 1074.27 1836.21 1079.25 1840.95C1084.24 1845.69 1067.12 1869.06 1041.01 1893.17C1014.91 1917.27 989.702 1932.97 984.717 1928.23C979.733 1923.5 996.854 1900.12 1022.96 1876.02Z" stroke="black"/>
<path d="M1140.98 1893.47C1157.5 1924.11 1165.76 1951.39 1159.42 1954.39C1153.09 1957.38 1134.55 1934.97 1118.03 1904.32C1101.5 1873.68 1093.25 1846.4 1099.58 1843.4C1105.92 1840.41 1124.46 1862.82 1140.98 1893.47Z" fill="white"/>
<path d="M1140.98 1893.47C1157.5 1924.11 1165.76 1951.39 1159.42 1954.39C1153.09 1957.38 1134.55 1934.97 1118.03 1904.32C1101.5 1873.68 1093.25 1846.4 1099.58 1843.4C1105.92 1840.41 1124.46 1862.82 1140.98 1893.47Z" stroke="black"/>
<path d="M1093.2 1912.48C1087.93 1946.46 1077.96 1973.22 1070.93 1972.27C1063.91 1971.31 1062.48 1942.99 1067.76 1909.02C1073.03 1875.04 1083 1848.27 1090.03 1849.23C1097.05 1850.18 1098.47 1878.5 1093.2 1912.48Z" fill="white"/>
<path d="M1093.2 1912.48C1087.93 1946.46 1077.96 1973.22 1070.93 1972.27C1063.91 1971.31 1062.48 1942.99 1067.76 1909.02C1073.03 1875.04 1083 1848.27 1090.03 1849.23C1097.05 1850.18 1098.47 1878.5 1093.2 1912.48Z" stroke="black"/>
<path d="M1130.12 1755.28C1120.64 1788.44 1107.38 1813.93 1100.53 1812.21C1093.67 1810.49 1095.8 1782.21 1105.29 1749.05C1114.77 1715.88 1128.03 1690.4 1134.88 1692.12C1141.74 1693.84 1139.61 1722.12 1130.12 1755.28Z" fill="white"/>
<path d="M1130.12 1755.28C1120.64 1788.44 1107.38 1813.93 1100.53 1812.21C1093.67 1810.49 1095.8 1782.21 1105.29 1749.05C1114.77 1715.88 1128.03 1690.4 1134.88 1692.12C1141.74 1693.84 1139.61 1722.12 1130.12 1755.28Z" stroke="black"/>
<path d="M1161.64 1789.97C1133.98 1812.51 1107.78 1826.7 1103.12 1821.69C1098.46 1816.67 1117.11 1794.33 1144.77 1771.8C1172.42 1749.27 1198.62 1735.07 1203.28 1740.09C1207.94 1745.11 1189.3 1767.44 1161.64 1789.97Z" fill="white"/>
<path d="M1161.64 1789.97C1133.98 1812.51 1107.78 1826.7 1103.12 1821.69C1098.46 1816.67 1117.11 1794.33 1144.77 1771.8C1172.42 1749.27 1198.62 1735.07 1203.28 1740.09C1207.94 1745.11 1189.3 1767.44 1161.64 1789.97Z" stroke="black"/>
<path d="M1024.49 1773.61C1055.32 1792.19 1077.19 1811.78 1073.35 1817.38C1069.51 1822.97 1041.4 1812.44 1010.58 1793.86C979.752 1775.28 957.878 1755.68 961.721 1750.09C965.563 1744.5 993.667 1755.03 1024.49 1773.61Z" fill="white"/>
<path d="M1024.49 1773.61C1055.32 1792.19 1077.19 1811.78 1073.35 1817.38C1069.51 1822.97 1041.4 1812.44 1010.58 1793.86C979.752 1775.28 957.878 1755.68 961.721 1750.09C965.563 1744.5 993.667 1755.03 1024.49 1773.61Z" stroke="black"/>
<path d="M1170.63 1843.58C1133.97 1843.58 1104.25 1838.18 1104.25 1831.53C1104.25 1824.88 1133.97 1819.49 1170.63 1819.49C1207.28 1819.49 1237 1824.88 1237 1831.53C1237 1838.18 1207.28 1843.58 1170.63 1843.58Z" fill="white"/>
<path d="M1170.63 1843.58C1133.97 1843.58 1104.25 1838.18 1104.25 1831.53C1104.25 1824.88 1133.97 1819.49 1170.63 1819.49C1207.28 1819.49 1237 1824.88 1237 1831.53C1237 1838.18 1207.28 1843.58 1170.63 1843.58Z" stroke="black"/>
<path d="M1010.37 1821.17C1047.03 1821.17 1076.75 1826.56 1076.75 1833.21C1076.75 1839.86 1047.03 1845.26 1010.37 1845.26C973.716 1845.26 944 1839.86 944 1833.21C944 1826.56 973.716 1821.17 1010.37 1821.17Z" fill="white"/>
<path d="M1010.37 1821.17C1047.03 1821.17 1076.75 1826.56 1076.75 1833.21C1076.75 1839.86 1047.03 1845.26 1010.37 1845.26C973.716 1845.26 944 1839.86 944 1833.21C944 1826.56 973.716 1821.17 1010.37 1821.17Z" stroke="black"/>
<path d="M1176.38 1861.22C1208.13 1878.38 1230.99 1896.97 1227.44 1902.73C1223.89 1908.49 1195.27 1899.24 1163.53 1882.07C1131.78 1864.91 1108.92 1846.32 1112.47 1840.56C1116.03 1834.8 1144.64 1844.05 1176.38 1861.22Z" fill="white"/>
<path d="M1176.38 1861.22C1208.13 1878.38 1230.99 1896.97 1227.44 1902.73C1223.89 1908.49 1195.27 1899.24 1163.53 1882.07C1131.78 1864.91 1108.92 1846.32 1112.47 1840.56C1116.03 1834.8 1144.64 1844.05 1176.38 1861.22Z" stroke="black"/>
<path d="M1129.37 1830.69C1129.37 1848.63 1113.84 1863.18 1094.69 1863.18C1075.53 1863.18 1060 1848.63 1060 1830.69C1060 1812.75 1075.53 1798.21 1094.69 1798.21C1113.84 1798.21 1129.37 1812.75 1129.37 1830.69Z" fill="#FDE85D"/>
<path d="M1129.37 1830.69C1129.37 1848.63 1113.84 1863.18 1094.69 1863.18C1075.53 1863.18 1060 1848.63 1060 1830.69C1060 1812.75 1075.53 1798.21 1094.69 1798.21C1113.84 1798.21 1129.37 1812.75 1129.37 1830.69Z" stroke="black"/>
<ellipse cx="637.041" cy="3572.5" rx="25.8153" ry="65.0382" transform="rotate(-15 637.041 3572.5)" fill="#D3E723"/>
<ellipse cx="592.756" cy="3697.88" rx="26.1679" ry="65.0382" transform="rotate(-134.59 592.756 3697.88)" fill="#D3E723"/>
<ellipse cx="688.076" cy="3725.81" rx="22.3395" ry="65.0382" transform="rotate(-26.7939 688.076 3725.81)" fill="#D3E723"/>
<ellipse cx="639.771" cy="3725.81" rx="25.4679" ry="65.0382" transform="rotate(13.5243 639.771 3725.81)" fill="#D3E723"/>
<ellipse cx="690.683" cy="3573.53" rx="29.7883" ry="65.0382" transform="rotate(15 690.683 3573.53)" fill="#D3E723"/>
<ellipse cx="729.903" cy="3609.35" rx="27.6959" ry="65.0382" transform="rotate(48.9836 729.903 3609.35)" fill="#D3E723"/>
<ellipse cx="588.628" cy="3604.02" rx="27.4126" ry="65.0382" transform="rotate(-57.2362 588.628 3604.02)" fill="#D3E723"/>
<ellipse cx="739" cy="3659" rx="25" ry="65" transform="rotate(90 739 3659)" fill="#D3E723"/>
<ellipse cx="580" cy="3652" rx="23" ry="65" transform="rotate(-90 580 3652)" fill="#D3E723"/>
<ellipse cx="729.845" cy="3704.28" rx="25.7269" ry="65.0382" transform="rotate(-60 729.845 3704.28)" fill="#D3E723"/>
<circle cx="663" cy="3650" r="34" fill="#47ABC2"/>
<path d="M708.503 2348.97C717.99 2382.13 720.122 2410.41 713.263 2412.13C706.405 2413.85 693.154 2388.37 683.667 2355.2C674.179 2322.04 672.048 2293.76 678.906 2292.04C685.764 2290.32 699.015 2315.8 708.503 2348.97Z" fill="#47ABC2"/>
<path d="M708.503 2348.97C717.99 2382.13 720.122 2410.41 713.263 2412.13C706.405 2413.85 693.154 2388.37 683.667 2355.2C674.179 2322.04 672.048 2293.76 678.906 2292.04C685.764 2290.32 699.015 2315.8 708.503 2348.97Z" stroke="black"/>
<path d="M653.96 2472.02C680.065 2447.91 705.269 2432.21 710.253 2436.95C715.238 2441.69 698.116 2465.06 672.011 2489.17C645.905 2513.27 620.702 2528.97 615.717 2524.23C610.733 2519.5 627.854 2496.12 653.96 2472.02Z" fill="#47ABC2"/>
<path d="M653.96 2472.02C680.065 2447.91 705.269 2432.21 710.253 2436.95C715.238 2441.69 698.116 2465.06 672.011 2489.17C645.905 2513.27 620.702 2528.97 615.717 2524.23C610.733 2519.5 627.854 2496.12 653.96 2472.02Z" stroke="black"/>
<path d="M771.98 2489.47C788.504 2520.11 796.762 2547.39 790.424 2550.39C784.086 2553.38 765.553 2530.97 749.028 2500.32C732.504 2469.68 724.246 2442.4 730.584 2439.4C736.922 2436.41 755.455 2458.82 771.98 2489.47Z" fill="#47ABC2"/>
<path d="M771.98 2489.47C788.504 2520.11 796.762 2547.39 790.424 2550.39C784.086 2553.38 765.553 2530.97 749.028 2500.32C732.504 2469.68 724.246 2442.4 730.584 2439.4C736.922 2436.41 755.455 2458.82 771.98 2489.47Z" stroke="black"/>
<path d="M724.201 2508.48C718.929 2542.46 708.959 2569.22 701.933 2568.27C694.906 2567.31 693.484 2538.99 698.757 2505.02C704.029 2471.04 713.999 2444.27 721.025 2445.23C728.052 2446.18 729.474 2474.5 724.201 2508.48Z" fill="#47ABC2"/>
<path d="M724.201 2508.48C718.929 2542.46 708.959 2569.22 701.933 2568.27C694.906 2567.31 693.484 2538.99 698.757 2505.02C704.029 2471.04 713.999 2444.27 721.025 2445.23C728.052 2446.18 729.474 2474.5 724.201 2508.48Z" stroke="black"/>
<path d="M761.123 2351.28C751.635 2384.44 738.385 2409.93 731.526 2408.21C724.668 2406.49 726.799 2378.21 736.287 2345.05C745.774 2311.88 759.025 2286.4 765.884 2288.12C772.742 2289.84 770.611 2318.12 761.123 2351.28Z" fill="#47ABC2"/>
<path d="M761.123 2351.28C751.635 2384.44 738.385 2409.93 731.526 2408.21C724.668 2406.49 726.799 2378.21 736.287 2345.05C745.774 2311.88 759.025 2286.4 765.884 2288.12C772.742 2289.84 770.611 2318.12 761.123 2351.28Z" stroke="black"/>
<path d="M792.64 2385.97C764.982 2408.51 738.782 2422.7 734.123 2417.69C729.463 2412.67 748.107 2390.33 775.766 2367.8C803.424 2345.27 829.623 2331.07 834.283 2336.09C838.943 2341.11 820.299 2363.44 792.64 2385.97Z" fill="#47ABC2"/>
<path d="M792.64 2385.97C764.982 2408.51 738.782 2422.7 734.123 2417.69C729.463 2412.67 748.107 2390.33 775.766 2367.8C803.424 2345.27 829.623 2331.07 834.283 2336.09C838.943 2341.11 820.299 2363.44 792.64 2385.97Z" stroke="black"/>
<path d="M655.492 2369.61C686.317 2388.19 708.191 2407.78 704.349 2413.38C700.506 2418.97 672.402 2408.44 641.577 2389.86C610.752 2371.28 588.878 2351.68 592.721 2346.09C596.563 2340.5 624.667 2351.03 655.492 2369.61Z" fill="#47ABC2"/>
<path d="M655.492 2369.61C686.317 2388.19 708.191 2407.78 704.349 2413.38C700.506 2418.97 672.402 2408.44 641.577 2389.86C610.752 2371.28 588.878 2351.68 592.721 2346.09C596.563 2340.5 624.667 2351.03 655.492 2369.61Z" stroke="black"/>
<path d="M801.627 2439.58C764.969 2439.58 735.253 2434.18 735.253 2427.53C735.253 2420.88 764.969 2415.49 801.627 2415.49C838.284 2415.49 868 2420.88 868 2427.53C868 2434.18 838.284 2439.58 801.627 2439.58Z" fill="#47ABC2"/>
<path d="M801.627 2439.58C764.969 2439.58 735.253 2434.18 735.253 2427.53C735.253 2420.88 764.969 2415.49 801.627 2415.49C838.284 2415.49 868 2420.88 868 2427.53C868 2434.18 838.284 2439.58 801.627 2439.58Z" stroke="black"/>
<path d="M641.373 2417.17C678.031 2417.17 707.747 2422.56 707.747 2429.21C707.747 2435.86 678.031 2441.26 641.373 2441.26C604.716 2441.26 575 2435.86 575 2429.21C575 2422.56 604.716 2417.17 641.373 2417.17Z" fill="#47ABC2"/>
<path d="M641.373 2417.17C678.031 2417.17 707.747 2422.56 707.747 2429.21C707.747 2435.86 678.031 2441.26 641.373 2441.26C604.716 2441.26 575 2435.86 575 2429.21C575 2422.56 604.716 2417.17 641.373 2417.17Z" stroke="black"/>
<path d="M807.384 2457.22C839.13 2474.38 861.987 2492.97 858.437 2498.73C854.887 2504.49 826.274 2495.24 794.528 2478.07C762.782 2460.91 739.925 2442.32 743.475 2436.56C747.025 2430.8 775.638 2440.05 807.384 2457.22Z" fill="#47ABC2"/>
<path d="M807.384 2457.22C839.13 2474.38 861.987 2492.97 858.437 2498.73C854.887 2504.49 826.274 2495.24 794.528 2478.07C762.782 2460.91 739.925 2442.32 743.475 2436.56C747.025 2430.8 775.638 2440.05 807.384 2457.22Z" stroke="black"/>
<path d="M760.367 2426.69C760.367 2444.63 744.84 2459.18 725.686 2459.18C706.532 2459.18 691.004 2444.63 691.004 2426.69C691.004 2408.75 706.532 2394.21 725.686 2394.21C744.84 2394.21 760.367 2408.75 760.367 2426.69Z" fill="#FDE85D"/>
<path d="M760.367 2426.69C760.367 2444.63 744.84 2459.18 725.686 2459.18C706.532 2459.18 691.004 2444.63 691.004 2426.69C691.004 2408.75 706.532 2394.21 725.686 2394.21C744.84 2394.21 760.367 2408.75 760.367 2426.69Z" stroke="black"/>
<path d="M1003.59 4148C1003.59 4160 944.594 3958 996.094 3879C1047.59 3800 1119.09 3735.5 1232.09 3749.5C1345.09 3763.5 1411.09 3695 1454.59 3659.5C1498.09 3624 1566.09 3390 1566.09 3390" stroke="#FF0A81" stroke-width="100"/>
<path d="M1093.78 4148.56C1093.78 4158.89 1037.68 3984.99 1086.65 3916.98C1135.62 3848.97 1203.6 3793.44 1311.03 3805.49C1418.47 3817.54 1481.22 3758.57 1522.58 3728.01C1563.94 3697.45 1628.59 3496 1628.59 3496" stroke="#47ABC2" stroke-width="100"/>
<path d="M1164.78 4208.56C1164.78 4218.89 1108.68 4044.99 1157.65 3976.98C1206.62 3908.97 1274.6 3853.44 1382.03 3865.49C1489.47 3877.54 1552.22 3818.57 1593.58 3788.01C1634.94 3757.45 1699.59 3556 1699.59 3556" stroke="#D3E723" stroke-width="100"/>
<path d="M1224.78 4279.56C1224.78 4289.89 1168.68 4115.99 1217.65 4047.98C1266.62 3979.97 1334.6 3924.44 1442.03 3936.49C1549.47 3948.54 1612.22 3889.57 1653.58 3859.01C1694.94 3828.45 1759.59 3627 1759.59 3627" stroke="#731094" stroke-width="100"/>
<path d="M1267.6 4366.57C1267.6 4376.72 1216 4205.75 1261.04 4138.89C1306.09 4072.02 1368.63 4017.43 1467.46 4029.28C1566.3 4041.13 1624.02 3983.15 1662.07 3953.1C1700.12 3923.06 1759.59 3725 1759.59 3725" stroke="#731094" stroke-width="100"/>
<path d="M-34 2361C-34 2361 98 2537 133.5 2639.5C169 2742 133.5 2771.5 133.5 2869C133.5 2966.5 169 3096 169 3096C169 3096 192.5 3171.5 201 3225.5C209.5 3279.5 193 3355 152.5 3398.5C112 3442 -34 3506.5 -34 3506.5" stroke="#FF0A81" stroke-width="100"/>
<path d="M-102 2359C-102 2359 30 2535 65.5 2637.5C101 2740 65.5 2769.5 65.5 2867C65.5 2964.5 101 3094 101 3094C101 3094 124.5 3169.5 133 3223.5C141.5 3277.5 125 3353 84.5 3396.5C44 3440 -102 3504.5 -102 3504.5" stroke="#47ABC2" stroke-width="100"/>
<path d="M-182 2348C-182 2348 -50 2524 -14.5 2626.5C21 2729 -14.5 2758.5 -14.5 2856C-14.5 2953.5 21 3083 21 3083C21 3083 44.5 3158.5 53 3212.5C61.5 3266.5 45 3342 4.50002 3385.5C-36 3429 -182 3493.5 -182 3493.5" stroke="#731094" stroke-width="100"/>
<path d="M1386.98 3073.82C1396.27 3108.52 1392.65 3139.64 1378.87 3143.33C1365.1 3147.02 1346.4 3121.88 1337.11 3087.18C1327.81 3052.49 1331.44 3021.37 1345.21 3017.68C1358.98 3013.99 1377.68 3039.13 1386.98 3073.82Z" fill="#FF0A81"/>
<path d="M1386.98 3073.82C1396.27 3108.52 1392.65 3139.64 1378.87 3143.33C1365.1 3147.02 1346.4 3121.88 1337.11 3087.18C1327.81 3052.49 1331.44 3021.37 1345.21 3017.68C1358.98 3013.99 1377.68 3039.13 1386.98 3073.82Z" stroke="black"/>
<path d="M1299.39 3187.24C1324.97 3162.02 1353.93 3149.92 1364.07 3160.22C1374.22 3170.51 1361.71 3199.29 1336.13 3224.51C1310.55 3249.73 1281.58 3261.83 1271.44 3251.53C1261.29 3241.24 1273.81 3212.46 1299.39 3187.24Z" fill="#FF0A81"/>
<path d="M1299.39 3187.24C1324.97 3162.02 1353.93 3149.92 1364.07 3160.22C1374.22 3170.51 1361.71 3199.29 1336.13 3224.51C1310.55 3249.73 1281.58 3261.83 1271.44 3251.53C1261.29 3241.24 1273.81 3212.46 1299.39 3187.24Z" stroke="black"/>
<path d="M1433.02 3223.74C1449.21 3255.8 1453.41 3286.3 1442.39 3291.87C1431.38 3297.43 1409.33 3275.94 1393.13 3243.88C1376.94 3211.82 1372.74 3181.32 1383.76 3175.76C1394.77 3170.19 1416.82 3191.68 1433.02 3223.74Z" fill="#FF0A81"/>
<path d="M1433.02 3223.74C1449.21 3255.8 1453.41 3286.3 1442.39 3291.87C1431.38 3297.43 1409.33 3275.94 1393.13 3243.88C1376.94 3211.82 1372.74 3181.32 1383.76 3175.76C1394.77 3170.19 1416.82 3191.68 1433.02 3223.74Z" stroke="black"/>
<path d="M1389.53 3239.77C1381.13 3274.69 1363.24 3300.33 1349.56 3297.04C1335.89 3293.76 1331.61 3262.78 1340.01 3227.85C1348.41 3192.93 1366.31 3167.29 1379.98 3170.57C1393.66 3173.86 1397.93 3204.84 1389.53 3239.77Z" fill="#FF0A81"/>
<path d="M1389.53 3239.77C1381.13 3274.69 1363.24 3300.33 1349.56 3297.04C1335.89 3293.76 1331.61 3262.78 1340.01 3227.85C1348.41 3192.93 1366.31 3167.29 1379.98 3170.57C1393.66 3173.86 1397.93 3204.84 1389.53 3239.77Z" stroke="black"/>
<path d="M1444.46 3089.24C1435.16 3123.94 1414.74 3148.61 1398.85 3144.35C1382.96 3140.1 1377.61 3108.52 1386.91 3073.82C1396.21 3039.13 1416.62 3014.45 1432.52 3018.71C1448.41 3022.97 1453.75 3054.55 1444.46 3089.24Z" fill="#FF0A81"/>
<path d="M1444.46 3089.24C1435.16 3123.94 1414.74 3148.61 1398.85 3144.35C1382.96 3140.1 1377.61 3108.52 1386.91 3073.82C1396.21 3039.13 1416.62 3014.45 1432.52 3018.71C1448.41 3022.97 1453.75 3054.55 1444.46 3089.24Z" stroke="black"/>
<path d="M1473.08 3138.25C1445.98 3161.82 1415.87 3171.58 1405.83 3160.04C1395.79 3148.49 1409.62 3120.03 1436.73 3096.46C1463.83 3072.88 1493.94 3063.13 1503.98 3074.67C1514.01 3086.21 1500.18 3114.68 1473.08 3138.25Z" fill="#FF0A81"/>
<path d="M1473.08 3138.25C1445.98 3161.82 1415.87 3171.58 1405.83 3160.04C1395.79 3148.49 1409.62 3120.03 1436.73 3096.46C1463.83 3072.88 1493.94 3063.13 1503.98 3074.67C1514.01 3086.21 1500.18 3114.68 1473.08 3138.25Z" stroke="black"/>
<path d="M1328.46 3088.97C1358.67 3108.41 1376.51 3134.49 1368.32 3147.22C1360.13 3159.95 1329 3154.51 1298.79 3135.07C1268.59 3115.63 1250.74 3089.56 1258.94 3076.82C1267.13 3064.09 1298.26 3069.53 1328.46 3088.97Z" fill="#FF0A81"/>
<path d="M1328.46 3088.97C1358.67 3108.41 1376.51 3134.49 1368.32 3147.22C1360.13 3159.95 1329 3154.51 1298.79 3135.07C1268.59 3115.63 1250.74 3089.56 1258.94 3076.82C1267.13 3064.09 1298.26 3069.53 1328.46 3088.97Z" stroke="black"/>
<path d="M1464 3192C1428.1 3192 1399 3180.81 1399 3167C1399 3153.19 1428.1 3142 1464 3142C1499.9 3142 1529 3153.19 1529 3167C1529 3180.81 1499.9 3192 1464 3192Z" fill="#FF0A81"/>
<path d="M1464 3192C1428.1 3192 1399 3180.81 1399 3167C1399 3153.19 1428.1 3142 1464 3142C1499.9 3142 1529 3153.19 1529 3167C1529 3180.81 1499.9 3192 1464 3192Z" stroke="black"/>
<path d="M1305 3137C1340.9 3137 1370 3147.3 1370 3160C1370 3172.7 1340.9 3183 1305 3183C1269.1 3183 1240 3172.7 1240 3160C1240 3147.3 1269.1 3137 1305 3137Z" fill="#FF0A81"/>
<path d="M1305 3137C1340.9 3137 1370 3147.3 1370 3160C1370 3172.7 1340.9 3183 1305 3183C1269.1 3183 1240 3172.7 1240 3160C1240 3147.3 1269.1 3137 1305 3137Z" stroke="black"/>
<path d="M1467.71 3190C1498.82 3207.96 1518.27 3232.5 1511.17 3244.8C1504.07 3257.11 1473.09 3252.52 1441.98 3234.56C1410.87 3216.6 1391.42 3192.07 1398.52 3179.76C1405.63 3167.46 1436.6 3172.04 1467.71 3190Z" fill="#FF0A81"/>
<path d="M1467.71 3190C1498.82 3207.96 1518.27 3232.5 1511.17 3244.8C1504.07 3257.11 1473.09 3252.52 1441.98 3234.56C1410.87 3216.6 1391.42 3192.07 1398.52 3179.76C1405.63 3167.46 1436.6 3172.04 1467.71 3190Z" stroke="black"/>
<circle cx="1388" cy="3158" r="34" fill="#731094"/>
<circle cx="1388" cy="3158" r="34" stroke="black"/>
<path d="M67.5026 3749.97C76.9902 3783.13 79.1216 3811.41 72.2633 3813.13C65.405 3814.85 52.1541 3789.37 42.6665 3756.2C33.179 3723.04 31.0475 3694.76 37.9059 3693.04C44.7642 3691.32 58.0151 3716.8 67.5026 3749.97Z" fill="white"/>
<path d="M67.5026 3749.97C76.9902 3783.13 79.1216 3811.41 72.2633 3813.13C65.405 3814.85 52.1541 3789.37 42.6665 3756.2C33.179 3723.04 31.0475 3694.76 37.9059 3693.04C44.7642 3691.32 58.0151 3716.8 67.5026 3749.97Z" stroke="black"/>
<path d="M12.9599 3873.02C39.0653 3848.91 64.2687 3833.21 69.2533 3837.95C74.2378 3842.69 57.116 3866.06 31.0105 3890.17C4.90507 3914.27 -20.2983 3929.97 -25.2829 3925.23C-30.2674 3920.5 -13.1455 3897.12 12.9599 3873.02Z" fill="white"/>
<path d="M12.9599 3873.02C39.0653 3848.91 64.2687 3833.21 69.2533 3837.95C74.2378 3842.69 57.116 3866.06 31.0105 3890.17C4.90507 3914.27 -20.2983 3929.97 -25.2829 3925.23C-30.2674 3920.5 -13.1455 3897.12 12.9599 3873.02Z" stroke="black"/>
<path d="M130.98 3890.47C147.504 3921.11 155.762 3948.39 149.424 3951.39C143.086 3954.38 124.553 3931.97 108.028 3901.32C91.5038 3870.68 83.246 3843.4 89.584 3840.4C95.9219 3837.41 114.455 3859.82 130.98 3890.47Z" fill="white"/>
<path d="M130.98 3890.47C147.504 3921.11 155.762 3948.39 149.424 3951.39C143.086 3954.38 124.553 3931.97 108.028 3901.32C91.5038 3870.68 83.246 3843.4 89.584 3840.4C95.9219 3837.41 114.455 3859.82 130.98 3890.47Z" stroke="black"/>
<path d="M83.2014 3909.48C77.9291 3943.46 67.959 3970.22 60.9326 3969.27C53.9062 3968.31 52.4842 3939.99 57.7565 3906.02C63.0289 3872.04 72.999 3845.27 80.0254 3846.23C87.0518 3847.18 88.4738 3875.5 83.2014 3909.48Z" fill="white"/>
<path d="M83.2014 3909.48C77.9291 3943.46 67.959 3970.22 60.9326 3969.27C53.9062 3968.31 52.4842 3939.99 57.7565 3906.02C63.0289 3872.04 72.999 3845.27 80.0254 3846.23C87.0518 3847.18 88.4738 3875.5 83.2014 3909.48Z" stroke="black"/>
<path d="M120.123 3752.28C110.635 3785.44 97.3845 3810.93 90.5262 3809.21C83.6679 3807.49 85.7993 3779.21 95.2869 3746.05C104.774 3712.88 118.025 3687.4 124.884 3689.12C131.742 3690.84 129.611 3719.12 120.123 3752.28Z" fill="white"/>
<path d="M120.123 3752.28C110.635 3785.44 97.3845 3810.93 90.5262 3809.21C83.6679 3807.49 85.7993 3779.21 95.2869 3746.05C104.774 3712.88 118.025 3687.4 124.884 3689.12C131.742 3690.84 129.611 3719.12 120.123 3752.28Z" stroke="black"/>
<path d="M151.64 3786.97C123.982 3809.51 97.7824 3823.7 93.1227 3818.69C88.463 3813.67 107.107 3791.33 134.766 3768.8C162.424 3746.27 188.623 3732.07 193.283 3737.09C197.943 3742.11 179.299 3764.44 151.64 3786.97Z" fill="white"/>
<path d="M151.64 3786.97C123.982 3809.51 97.7824 3823.7 93.1227 3818.69C88.463 3813.67 107.107 3791.33 134.766 3768.8C162.424 3746.27 188.623 3732.07 193.283 3737.09C197.943 3742.11 179.299 3764.44 151.64 3786.97Z" stroke="black"/>
<path d="M14.4921 3770.61C45.3173 3789.19 67.1911 3808.78 63.3487 3814.38C59.5062 3819.97 31.4024 3809.44 0.577201 3790.86C-30.248 3772.28 -52.1219 3752.68 -48.2794 3747.09C-44.4369 3741.5 -16.3331 3752.03 14.4921 3770.61Z" fill="white"/>
<path d="M14.4921 3770.61C45.3173 3789.19 67.1911 3808.78 63.3487 3814.38C59.5062 3819.97 31.4024 3809.44 0.577201 3790.86C-30.248 3772.28 -52.1219 3752.68 -48.2794 3747.09C-44.4369 3741.5 -16.3331 3752.03 14.4921 3770.61Z" stroke="black"/>
<path d="M160.627 3840.58C123.969 3840.58 94.2531 3835.18 94.2531 3828.53C94.2531 3821.88 123.969 3816.49 160.627 3816.49C197.284 3816.49 227 3821.88 227 3828.53C227 3835.18 197.284 3840.58 160.627 3840.58Z" fill="white"/>
<path d="M160.627 3840.58C123.969 3840.58 94.2531 3835.18 94.2531 3828.53C94.2531 3821.88 123.969 3816.49 160.627 3816.49C197.284 3816.49 227 3821.88 227 3828.53C227 3835.18 197.284 3840.58 160.627 3840.58Z" stroke="black"/>
<path d="M0.373473 3818.17C37.0305 3818.17 66.7469 3823.56 66.7469 3830.21C66.7469 3836.86 37.0305 3842.26 0.373474 3842.26C-36.2836 3842.26 -66 3836.86 -66 3830.21C-66 3823.56 -36.2836 3818.17 0.373473 3818.17Z" fill="white"/>
<path d="M0.373473 3818.17C37.0305 3818.17 66.7469 3823.56 66.7469 3830.21C66.7469 3836.86 37.0305 3842.26 0.373474 3842.26C-36.2836 3842.26 -66 3836.86 -66 3830.21C-66 3823.56 -36.2836 3818.17 0.373473 3818.17Z" stroke="black"/>
<path d="M166.384 3858.22C198.13 3875.38 220.987 3893.97 217.437 3899.73C213.887 3905.49 185.274 3896.24 153.528 3879.07C121.782 3861.91 98.9248 3843.32 102.475 3837.56C106.025 3831.8 134.638 3841.05 166.384 3858.22Z" fill="white"/>
<path d="M166.384 3858.22C198.13 3875.38 220.987 3893.97 217.437 3899.73C213.887 3905.49 185.274 3896.24 153.528 3879.07C121.782 3861.91 98.9248 3843.32 102.475 3837.56C106.025 3831.8 134.638 3841.05 166.384 3858.22Z" stroke="black"/>
<path d="M119.367 3827.69C119.367 3845.63 103.84 3860.18 84.6858 3860.18C65.5316 3860.18 50.0042 3845.63 50.0042 3827.69C50.0042 3809.75 65.5316 3795.21 84.6858 3795.21C103.84 3795.21 119.367 3809.75 119.367 3827.69Z" fill="#FDE85D"/>
<path d="M119.367 3827.69C119.367 3845.63 103.84 3860.18 84.6858 3860.18C65.5316 3860.18 50.0042 3845.63 50.0042 3827.69C50.0042 3809.75 65.5316 3795.21 84.6858 3795.21C103.84 3795.21 119.367 3809.75 119.367 3827.69Z" stroke="black"/>
<path d="M1003.59 4148C1003.59 4160 944.594 3958 996.094 3879C1047.59 3800 1119.09 3735.5 1232.09 3749.5C1345.09 3763.5 1411.09 3695 1454.59 3659.5C1498.09 3624 1566.09 3390 1566.09 3390" stroke="#FF0A81" stroke-width="100"/>
</g>
<defs>
<clipPath id="clip0_219_2160">
<rect width="1447" height="4089" fill="white"/>
</clipPath>
</defs>
</svg>
