<svg width="1342" height="790" viewBox="0 0 1342 790" fill="none" xmlns="http://www.w3.org/2000/svg">
<path d="M133.503 63.9684C142.99 97.1321 145.122 125.412 138.263 127.133C131.405 128.854 118.154 103.365 108.667 70.2014C99.179 37.0378 97.0475 8.75802 103.906 7.03682C110.764 5.31562 124.015 30.8048 133.503 63.9684Z" fill="#47ABC2"/>
<path d="M133.503 63.9684C142.99 97.1321 145.122 125.412 138.263 127.133C131.405 128.854 118.154 103.365 108.667 70.2014C99.179 37.0378 97.0475 8.75802 103.906 7.03682C110.764 5.31562 124.015 30.8048 133.503 63.9684Z" stroke="black"/>
<path d="M78.9599 187.017C105.065 162.914 130.269 147.214 135.253 151.95C140.238 156.686 123.116 180.064 97.0105 204.167C70.9051 228.27 45.7017 243.97 40.7171 239.234C35.7326 234.499 52.8545 211.12 78.9599 187.017Z" fill="#47ABC2"/>
<path d="M78.9599 187.017C105.065 162.914 130.269 147.214 135.253 151.95C140.238 156.686 123.116 180.064 97.0105 204.167C70.9051 228.27 45.7017 243.97 40.7171 239.234C35.7326 234.499 52.8545 211.12 78.9599 187.017Z" stroke="black"/>
<path d="M196.98 204.467C213.504 235.114 221.762 262.389 215.424 265.387C209.086 268.385 190.553 245.97 174.028 215.323C157.504 184.676 149.246 157.401 155.584 154.403C161.922 151.406 180.455 173.82 196.98 204.467Z" fill="#47ABC2"/>
<path d="M196.98 204.467C213.504 235.114 221.762 262.389 215.424 265.387C209.086 268.385 190.553 245.97 174.028 215.323C157.504 184.676 149.246 157.401 155.584 154.403C161.922 151.406 180.455 173.82 196.98 204.467Z" stroke="black"/>
<path d="M149.201 223.48C143.929 257.457 133.959 284.225 126.933 283.268C119.906 282.312 118.484 253.993 123.757 220.016C129.029 186.04 138.999 159.272 146.025 160.228C153.052 161.185 154.474 189.503 149.201 223.48Z" fill="#47ABC2"/>
<path d="M149.201 223.48C143.929 257.457 133.959 284.225 126.933 283.268C119.906 282.312 118.484 253.993 123.757 220.016C129.029 186.04 138.999 159.272 146.025 160.228C153.052 161.185 154.474 189.503 149.201 223.48Z" stroke="black"/>
<path d="M186.123 66.2811C176.635 99.4448 163.385 124.934 156.526 123.213C149.668 121.492 151.799 93.2118 161.287 60.0481C170.774 26.8845 184.025 1.39531 190.884 3.1165C197.742 4.8377 195.611 33.1175 186.123 66.2811Z" fill="#47ABC2"/>
<path d="M186.123 66.2811C176.635 99.4448 163.385 124.934 156.526 123.213C149.668 121.492 151.799 93.2118 161.287 60.0481C170.774 26.8845 184.025 1.39531 190.884 3.1165C197.742 4.8377 195.611 33.1175 186.123 66.2811Z" stroke="black"/>
<path d="M217.64 100.973C189.982 123.506 163.782 137.704 159.123 132.686C154.463 127.668 173.107 105.335 200.766 82.8025C228.424 60.2703 254.623 46.0719 259.283 51.0896C263.943 56.1073 245.299 78.441 217.64 100.973Z" fill="#47ABC2"/>
<path d="M217.64 100.973C189.982 123.506 163.782 137.704 159.123 132.686C154.463 127.668 173.107 105.335 200.766 82.8025C228.424 60.2703 254.623 46.0719 259.283 51.0896C263.943 56.1073 245.299 78.441 217.64 100.973Z" stroke="black"/>
<path d="M80.4921 84.6082C111.317 103.189 133.191 122.785 129.349 128.377C125.506 133.969 97.4024 123.44 66.5772 104.859C35.752 86.2788 13.8781 66.6829 17.7206 61.0907C21.5631 55.4985 49.6669 66.0277 80.4921 84.6082Z" fill="#47ABC2"/>
<path d="M80.4921 84.6082C111.317 103.189 133.191 122.785 129.349 128.377C125.506 133.969 97.4024 123.44 66.5772 104.859C35.752 86.2788 13.8781 66.6829 17.7206 61.0907C21.5631 55.4985 49.6669 66.0277 80.4921 84.6082Z" stroke="black"/>
<path d="M226.627 154.576C189.969 154.576 160.253 149.185 160.253 142.535C160.253 135.884 189.969 130.493 226.627 130.493C263.284 130.493 293 135.884 293 142.535C293 149.185 263.284 154.576 226.627 154.576Z" fill="#47ABC2"/>
<path d="M226.627 154.576C189.969 154.576 160.253 149.185 160.253 142.535C160.253 135.884 189.969 130.493 226.627 130.493C263.284 130.493 293 135.884 293 142.535C293 149.185 263.284 154.576 226.627 154.576Z" stroke="black"/>
<path d="M66.3735 132.174C103.031 132.174 132.747 137.565 132.747 144.215C132.747 150.865 103.031 156.256 66.3735 156.256C29.7164 156.256 -2.61529e-07 150.865 -5.84142e-07 144.215C-9.06754e-07 137.565 29.7164 132.174 66.3735 132.174Z" fill="#47ABC2"/>
<path d="M66.3735 132.174C103.031 132.174 132.747 137.565 132.747 144.215C132.747 150.865 103.031 156.256 66.3735 156.256C29.7164 156.256 -2.61529e-07 150.865 -5.84142e-07 144.215C-9.06754e-07 137.565 29.7164 132.174 66.3735 132.174Z" stroke="black"/>
<path d="M232.384 172.218C264.13 189.384 286.987 207.97 283.437 213.729C279.887 219.488 251.274 210.24 219.528 193.074C187.782 175.907 164.925 157.322 168.475 151.562C172.025 145.803 200.638 155.051 232.384 172.218Z" fill="#47ABC2"/>
<path d="M232.384 172.218C264.13 189.384 286.987 207.97 283.437 213.729C279.887 219.488 251.274 210.24 219.528 193.074C187.782 175.907 164.925 157.322 168.475 151.562C172.025 145.803 200.638 155.051 232.384 172.218Z" stroke="black"/>
<path d="M185.367 141.695C185.367 159.635 169.84 174.178 150.686 174.178C131.532 174.178 116.004 159.635 116.004 141.695C116.004 123.754 131.532 109.211 150.686 109.211C169.84 109.211 185.367 123.754 185.367 141.695Z" fill="#FDE85D"/>
<path d="M185.367 141.695C185.367 159.635 169.84 174.178 150.686 174.178C131.532 174.178 116.004 159.635 116.004 141.695C116.004 123.754 131.532 109.211 150.686 109.211C169.84 109.211 185.367 123.754 185.367 141.695Z" stroke="black"/>
<path d="M1182.5 568.968C1191.99 602.132 1194.12 630.412 1187.26 632.133C1180.4 633.854 1167.15 608.365 1157.67 575.201C1148.18 542.038 1146.05 513.758 1152.91 512.037C1159.76 510.316 1173.02 535.805 1182.5 568.968Z" fill="white"/>
<path d="M1182.5 568.968C1191.99 602.132 1194.12 630.412 1187.26 632.133C1180.4 633.854 1167.15 608.365 1157.67 575.201C1148.18 542.038 1146.05 513.758 1152.91 512.037C1159.76 510.316 1173.02 535.805 1182.5 568.968Z" stroke="black"/>
<path d="M1127.96 692.017C1154.07 667.914 1179.27 652.214 1184.25 656.95C1189.24 661.686 1172.12 685.064 1146.01 709.167C1119.91 733.27 1094.7 748.97 1089.72 744.234C1084.73 739.498 1101.85 716.12 1127.96 692.017Z" fill="white"/>
<path d="M1127.96 692.017C1154.07 667.914 1179.27 652.214 1184.25 656.95C1189.24 661.686 1172.12 685.064 1146.01 709.167C1119.91 733.27 1094.7 748.97 1089.72 744.234C1084.73 739.498 1101.85 716.12 1127.96 692.017Z" stroke="black"/>
<path d="M1245.98 709.467C1262.5 740.114 1270.76 767.389 1264.42 770.387C1258.09 773.385 1239.55 750.97 1223.03 720.323C1206.5 689.676 1198.25 662.401 1204.58 659.403C1210.92 656.406 1229.46 678.82 1245.98 709.467Z" fill="white"/>
<path d="M1245.98 709.467C1262.5 740.114 1270.76 767.389 1264.42 770.387C1258.09 773.385 1239.55 750.97 1223.03 720.323C1206.5 689.676 1198.25 662.401 1204.58 659.403C1210.92 656.406 1229.46 678.82 1245.98 709.467Z" stroke="black"/>
<path d="M1198.2 728.48C1192.93 762.457 1182.96 789.225 1175.93 788.268C1168.91 787.312 1167.48 758.993 1172.76 725.016C1178.03 691.04 1188 664.272 1195.03 665.228C1202.05 666.185 1203.47 694.503 1198.2 728.48Z" fill="white"/>
<path d="M1198.2 728.48C1192.93 762.457 1182.96 789.225 1175.93 788.268C1168.91 787.312 1167.48 758.993 1172.76 725.016C1178.03 691.04 1188 664.272 1195.03 665.228C1202.05 666.185 1203.47 694.503 1198.2 728.48Z" stroke="black"/>
<path d="M1235.12 571.281C1225.64 604.445 1212.38 629.934 1205.53 628.213C1198.67 626.492 1200.8 598.212 1210.29 565.048C1219.77 531.884 1233.03 506.395 1239.88 508.117C1246.74 509.838 1244.61 538.117 1235.12 571.281Z" fill="white"/>
<path d="M1235.12 571.281C1225.64 604.445 1212.38 629.934 1205.53 628.213C1198.67 626.492 1200.8 598.212 1210.29 565.048C1219.77 531.884 1233.03 506.395 1239.88 508.117C1246.74 509.838 1244.61 538.117 1235.12 571.281Z" stroke="black"/>
<path d="M1266.64 605.973C1238.98 628.506 1212.78 642.704 1208.12 637.686C1203.46 632.668 1222.11 610.335 1249.77 587.803C1277.42 565.27 1303.62 551.072 1308.28 556.09C1312.94 561.107 1294.3 583.441 1266.64 605.973Z" fill="white"/>
<path d="M1266.64 605.973C1238.98 628.506 1212.78 642.704 1208.12 637.686C1203.46 632.668 1222.11 610.335 1249.77 587.803C1277.42 565.27 1303.62 551.072 1308.28 556.09C1312.94 561.107 1294.3 583.441 1266.64 605.973Z" stroke="black"/>
<path d="M1129.49 589.608C1160.32 608.189 1182.19 627.785 1178.35 633.377C1174.51 638.969 1146.4 628.44 1115.58 609.859C1084.75 591.279 1062.88 571.683 1066.72 566.091C1070.56 560.499 1098.67 571.028 1129.49 589.608Z" fill="white"/>
<path d="M1129.49 589.608C1160.32 608.189 1182.19 627.785 1178.35 633.377C1174.51 638.969 1146.4 628.44 1115.58 609.859C1084.75 591.279 1062.88 571.683 1066.72 566.091C1070.56 560.499 1098.67 571.028 1129.49 589.608Z" stroke="black"/>
<path d="M1275.63 659.576C1238.97 659.576 1209.25 654.185 1209.25 647.535C1209.25 640.884 1238.97 635.493 1275.63 635.493C1312.28 635.493 1342 640.884 1342 647.535C1342 654.185 1312.28 659.576 1275.63 659.576Z" fill="white"/>
<path d="M1275.63 659.576C1238.97 659.576 1209.25 654.185 1209.25 647.535C1209.25 640.884 1238.97 635.493 1275.63 635.493C1312.28 635.493 1342 640.884 1342 647.535C1342 654.185 1312.28 659.576 1275.63 659.576Z" stroke="black"/>
<path d="M1115.37 637.174C1152.03 637.174 1181.75 642.565 1181.75 649.215C1181.75 655.865 1152.03 661.256 1115.37 661.256C1078.72 661.256 1049 655.865 1049 649.215C1049 642.565 1078.72 637.174 1115.37 637.174Z" fill="white"/>
<path d="M1115.37 637.174C1152.03 637.174 1181.75 642.565 1181.75 649.215C1181.75 655.865 1152.03 661.256 1115.37 661.256C1078.72 661.256 1049 655.865 1049 649.215C1049 642.565 1078.72 637.174 1115.37 637.174Z" stroke="black"/>
<path d="M1281.38 677.218C1313.13 694.384 1335.99 712.97 1332.44 718.729C1328.89 724.488 1300.27 715.24 1268.53 698.074C1236.78 680.907 1213.92 662.322 1217.47 656.562C1221.03 650.803 1249.64 660.051 1281.38 677.218Z" fill="white"/>
<path d="M1281.38 677.218C1313.13 694.384 1335.99 712.97 1332.44 718.729C1328.89 724.488 1300.27 715.24 1268.53 698.074C1236.78 680.907 1213.92 662.322 1217.47 656.562C1221.03 650.803 1249.64 660.051 1281.38 677.218Z" stroke="black"/>
<path d="M1234.37 646.695C1234.37 664.635 1218.84 679.178 1199.69 679.178C1180.53 679.178 1165 664.635 1165 646.695C1165 628.754 1180.53 614.211 1199.69 614.211C1218.84 614.211 1234.37 628.754 1234.37 646.695Z" fill="#FDE85D"/>
<path d="M1234.37 646.695C1234.37 664.635 1218.84 679.178 1199.69 679.178C1180.53 679.178 1165 664.635 1165 646.695C1165 628.754 1180.53 614.211 1199.69 614.211C1218.84 614.211 1234.37 628.754 1234.37 646.695Z" stroke="black"/>
<path d="M1182.5 568.968C1191.99 602.132 1194.12 630.412 1187.26 632.133C1180.4 633.854 1167.15 608.365 1157.67 575.201C1148.18 542.038 1146.05 513.758 1152.91 512.037C1159.76 510.316 1173.02 535.805 1182.5 568.968Z" fill="white"/>
<path d="M1182.5 568.968C1191.99 602.132 1194.12 630.412 1187.26 632.133C1180.4 633.854 1167.15 608.365 1157.67 575.201C1148.18 542.038 1146.05 513.758 1152.91 512.037C1159.76 510.316 1173.02 535.805 1182.5 568.968Z" stroke="black"/>
<path d="M1127.96 692.017C1154.07 667.914 1179.27 652.214 1184.25 656.95C1189.24 661.686 1172.12 685.064 1146.01 709.167C1119.91 733.27 1094.7 748.97 1089.72 744.234C1084.73 739.498 1101.85 716.12 1127.96 692.017Z" fill="white"/>
<path d="M1127.96 692.017C1154.07 667.914 1179.27 652.214 1184.25 656.95C1189.24 661.686 1172.12 685.064 1146.01 709.167C1119.91 733.27 1094.7 748.97 1089.72 744.234C1084.73 739.498 1101.85 716.12 1127.96 692.017Z" stroke="black"/>
<path d="M1245.98 709.467C1262.5 740.114 1270.76 767.389 1264.42 770.387C1258.09 773.385 1239.55 750.97 1223.03 720.323C1206.5 689.676 1198.25 662.401 1204.58 659.403C1210.92 656.406 1229.46 678.82 1245.98 709.467Z" fill="white"/>
<path d="M1245.98 709.467C1262.5 740.114 1270.76 767.389 1264.42 770.387C1258.09 773.385 1239.55 750.97 1223.03 720.323C1206.5 689.676 1198.25 662.401 1204.58 659.403C1210.92 656.406 1229.46 678.82 1245.98 709.467Z" stroke="black"/>
<path d="M1198.2 728.48C1192.93 762.457 1182.96 789.225 1175.93 788.268C1168.91 787.312 1167.48 758.993 1172.76 725.016C1178.03 691.04 1188 664.272 1195.03 665.228C1202.05 666.185 1203.47 694.503 1198.2 728.48Z" fill="white"/>
<path d="M1198.2 728.48C1192.93 762.457 1182.96 789.225 1175.93 788.268C1168.91 787.312 1167.48 758.993 1172.76 725.016C1178.03 691.04 1188 664.272 1195.03 665.228C1202.05 666.185 1203.47 694.503 1198.2 728.48Z" stroke="black"/>
<path d="M1235.12 571.281C1225.64 604.445 1212.38 629.934 1205.53 628.213C1198.67 626.492 1200.8 598.212 1210.29 565.048C1219.77 531.884 1233.03 506.395 1239.88 508.117C1246.74 509.838 1244.61 538.117 1235.12 571.281Z" fill="white"/>
<path d="M1235.12 571.281C1225.64 604.445 1212.38 629.934 1205.53 628.213C1198.67 626.492 1200.8 598.212 1210.29 565.048C1219.77 531.884 1233.03 506.395 1239.88 508.117C1246.74 509.838 1244.61 538.117 1235.12 571.281Z" stroke="black"/>
<path d="M1266.64 605.973C1238.98 628.506 1212.78 642.704 1208.12 637.686C1203.46 632.668 1222.11 610.335 1249.77 587.803C1277.42 565.27 1303.62 551.072 1308.28 556.09C1312.94 561.107 1294.3 583.441 1266.64 605.973Z" fill="white"/>
<path d="M1266.64 605.973C1238.98 628.506 1212.78 642.704 1208.12 637.686C1203.46 632.668 1222.11 610.335 1249.77 587.803C1277.42 565.27 1303.62 551.072 1308.28 556.09C1312.94 561.107 1294.3 583.441 1266.64 605.973Z" stroke="black"/>
<path d="M1129.49 589.608C1160.32 608.189 1182.19 627.785 1178.35 633.377C1174.51 638.969 1146.4 628.44 1115.58 609.859C1084.75 591.279 1062.88 571.683 1066.72 566.091C1070.56 560.499 1098.67 571.028 1129.49 589.608Z" fill="white"/>
<path d="M1129.49 589.608C1160.32 608.189 1182.19 627.785 1178.35 633.377C1174.51 638.969 1146.4 628.44 1115.58 609.859C1084.75 591.279 1062.88 571.683 1066.72 566.091C1070.56 560.499 1098.67 571.028 1129.49 589.608Z" stroke="black"/>
<path d="M1275.63 659.576C1238.97 659.576 1209.25 654.185 1209.25 647.535C1209.25 640.884 1238.97 635.493 1275.63 635.493C1312.28 635.493 1342 640.884 1342 647.535C1342 654.185 1312.28 659.576 1275.63 659.576Z" fill="white"/>
<path d="M1275.63 659.576C1238.97 659.576 1209.25 654.185 1209.25 647.535C1209.25 640.884 1238.97 635.493 1275.63 635.493C1312.28 635.493 1342 640.884 1342 647.535C1342 654.185 1312.28 659.576 1275.63 659.576Z" stroke="black"/>
<path d="M1115.37 637.174C1152.03 637.174 1181.75 642.565 1181.75 649.215C1181.75 655.865 1152.03 661.256 1115.37 661.256C1078.72 661.256 1049 655.865 1049 649.215C1049 642.565 1078.72 637.174 1115.37 637.174Z" fill="white"/>
<path d="M1115.37 637.174C1152.03 637.174 1181.75 642.565 1181.75 649.215C1181.75 655.865 1152.03 661.256 1115.37 661.256C1078.72 661.256 1049 655.865 1049 649.215C1049 642.565 1078.72 637.174 1115.37 637.174Z" stroke="black"/>
<path d="M1281.38 677.218C1313.13 694.384 1335.99 712.97 1332.44 718.729C1328.89 724.488 1300.27 715.24 1268.53 698.074C1236.78 680.907 1213.92 662.322 1217.47 656.562C1221.03 650.803 1249.64 660.051 1281.38 677.218Z" fill="white"/>
<path d="M1281.38 677.218C1313.13 694.384 1335.99 712.97 1332.44 718.729C1328.89 724.488 1300.27 715.24 1268.53 698.074C1236.78 680.907 1213.92 662.322 1217.47 656.562C1221.03 650.803 1249.64 660.051 1281.38 677.218Z" stroke="black"/>
<path d="M1234.37 646.695C1234.37 664.635 1218.84 679.178 1199.69 679.178C1180.53 679.178 1165 664.635 1165 646.695C1165 628.754 1180.53 614.211 1199.69 614.211C1218.84 614.211 1234.37 628.754 1234.37 646.695Z" fill="#FDE85D"/>
<path d="M1234.37 646.695C1234.37 664.635 1218.84 679.178 1199.69 679.178C1180.53 679.178 1165 664.635 1165 646.695C1165 628.754 1180.53 614.211 1199.69 614.211C1218.84 614.211 1234.37 628.754 1234.37 646.695Z" stroke="black"/>
<path d="M511.21 175.418C429.532 175.418 364.189 224.045 275.581 224.045C186.972 224.045 246.375 282.496 247.86 319.825C249.345 357.155 222.119 411.185 234.989 456.374C247.86 501.563 288.451 517.772 282.016 584.573C275.581 651.374 423.097 590.958 498.34 625.341C573.583 659.724 699.813 600.782 756.74 590.958C813.667 581.134 922.076 612.079 974.549 625.341C1027.02 638.603 1027.02 625.341 1068.11 590.958C1109.19 556.575 1068.11 540.857 1068.11 456.374C1068.11 371.891 1097.31 348.805 1107.21 319.825C1117.11 290.846 1122.56 238.78 1051.77 224.045C980.984 209.309 982.964 186.715 933.957 175.418C884.95 164.121 782.976 224.045 712.683 224.045C642.39 224.045 592.888 175.418 511.21 175.418Z" stroke="#731094" stroke-width="70"/>
<path d="M518.624 188.32C439.988 188.32 377.079 233.579 291.771 233.579C206.463 233.579 263.653 287.981 265.083 322.725C266.512 357.469 240.3 407.757 252.692 449.816C265.083 491.875 304.162 506.961 297.967 569.135C291.771 631.309 433.793 575.078 506.233 607.079C578.674 639.08 700.202 584.221 755.009 575.078C809.816 565.935 914.188 594.736 964.705 607.079C1015.22 619.422 1015.22 607.079 1054.78 575.078C1094.34 543.077 1054.78 528.447 1054.78 449.816C1054.78 371.184 1082.9 349.697 1092.43 322.725C1101.96 295.752 1107.2 247.293 1039.05 233.579C970.901 219.864 972.807 198.834 925.626 188.32C878.444 177.805 780.268 233.579 712.593 233.579C644.919 233.579 597.26 188.32 518.624 188.32Z" stroke="#47ABC2" stroke-width="70"/>
<path d="M527.34 210.175C453.959 210.175 395.254 250.487 315.646 250.487C236.038 250.487 289.406 298.943 290.741 329.89C292.075 360.837 267.614 405.628 279.178 443.089C290.741 480.551 327.209 493.988 321.427 549.367C315.646 604.745 448.177 554.66 515.777 583.163C583.377 611.667 696.784 562.804 747.929 554.66C799.073 546.516 896.47 572.169 943.612 583.163C990.754 594.158 990.754 583.163 1027.67 554.66C1064.58 526.157 1027.67 513.126 1027.67 443.089C1027.67 373.052 1053.91 353.914 1062.8 329.89C1071.7 305.866 1076.59 262.703 1012.99 250.487C949.394 238.272 951.173 219.541 907.144 210.175C863.115 200.81 771.5 250.487 708.347 250.487C645.195 250.487 600.721 210.175 527.34 210.175Z" stroke="#FF0A81" stroke-width="70"/>
<rect x="317" y="246" width="691" height="298" rx="67" fill="white"/>
<path d="M537.131 232.031C469.557 232.031 415.499 267.396 342.191 267.396C268.884 267.396 318.029 309.906 319.257 337.055C320.486 364.204 297.962 403.498 308.609 436.363C319.257 469.228 352.839 481.016 347.515 529.598C342.191 578.181 464.233 534.242 526.483 559.248C588.733 584.254 693.164 541.387 740.261 534.242C787.358 527.098 877.046 549.603 920.457 559.248C963.868 568.893 963.868 559.248 997.86 534.242C1031.85 509.237 997.86 497.805 997.86 436.363C997.86 374.921 1022.02 358.131 1030.21 337.055C1038.4 315.979 1042.91 278.113 984.345 267.396C925.781 256.68 927.419 240.247 886.875 232.031C846.331 223.815 761.967 267.396 703.812 267.396C645.658 267.396 604.704 232.031 537.131 232.031Z" stroke="white" stroke-width="70"/>
<path d="M349.36 308.08C349.733 307.427 350.28 306.893 351 306.48C351.72 306.067 352.54 305.86 353.46 305.86C354.447 305.86 355.333 306.093 356.12 306.56C356.907 307.027 357.527 307.687 357.98 308.54C358.433 309.38 358.66 310.36 358.66 311.48C358.66 312.587 358.433 313.573 357.98 314.44C357.527 315.307 356.9 315.98 356.1 316.46C355.313 316.94 354.433 317.18 353.46 317.18C352.513 317.18 351.68 316.973 350.96 316.56C350.253 316.147 349.72 315.62 349.36 314.98V317H347.54V302.2H349.36V308.08ZM356.8 311.48C356.8 310.653 356.633 309.933 356.3 309.32C355.967 308.707 355.513 308.24 354.94 307.92C354.38 307.6 353.76 307.44 353.08 307.44C352.413 307.44 351.793 307.607 351.22 307.94C350.66 308.26 350.207 308.733 349.86 309.36C349.527 309.973 349.36 310.687 349.36 311.5C349.36 312.327 349.527 313.053 349.86 313.68C350.207 314.293 350.66 314.767 351.22 315.1C351.793 315.42 352.413 315.58 353.08 315.58C353.76 315.58 354.38 315.42 354.94 315.1C355.513 314.767 355.967 314.293 356.3 313.68C356.633 313.053 356.8 312.32 356.8 311.48ZM362.876 302.2V317H361.056V302.2H362.876ZM375.698 306.04V317H373.878V315.38C373.531 315.94 373.044 316.38 372.418 316.7C371.804 317.007 371.124 317.16 370.378 317.16C369.524 317.16 368.758 316.987 368.078 316.64C367.398 316.28 366.858 315.747 366.458 315.04C366.071 314.333 365.878 313.473 365.878 312.46V306.04H367.678V312.22C367.678 313.3 367.951 314.133 368.498 314.72C369.044 315.293 369.791 315.58 370.738 315.58C371.711 315.58 372.478 315.28 373.038 314.68C373.598 314.08 373.878 313.207 373.878 312.06V306.04H375.698ZM380.59 307.82C380.91 307.193 381.364 306.707 381.95 306.36C382.55 306.013 383.277 305.84 384.13 305.84V307.72H383.65C381.61 307.72 380.59 308.827 380.59 311.04V317H378.77V306.04H380.59V307.82ZM388.051 308.08C388.425 307.427 388.971 306.893 389.691 306.48C390.411 306.067 391.231 305.86 392.151 305.86C393.138 305.86 394.025 306.093 394.811 306.56C395.598 307.027 396.218 307.687 396.671 308.54C397.125 309.38 397.351 310.36 397.351 311.48C397.351 312.587 397.125 313.573 396.671 314.44C396.218 315.307 395.591 315.98 394.791 316.46C394.005 316.94 393.125 317.18 392.151 317.18C391.205 317.18 390.371 316.973 389.651 316.56C388.945 316.147 388.411 315.62 388.051 314.98V317H386.231V302.2H388.051V308.08ZM395.491 311.48C395.491 310.653 395.325 309.933 394.991 309.32C394.658 308.707 394.205 308.24 393.631 307.92C393.071 307.6 392.451 307.44 391.771 307.44C391.105 307.44 390.485 307.607 389.911 307.94C389.351 308.26 388.898 308.733 388.551 309.36C388.218 309.973 388.051 310.687 388.051 311.5C388.051 312.327 388.218 313.053 388.551 313.68C388.898 314.293 389.351 314.767 389.911 315.1C390.485 315.42 391.105 315.58 391.771 315.58C392.451 315.58 393.071 315.42 393.631 315.1C394.205 314.767 394.658 314.293 394.991 313.68C395.325 313.053 395.491 312.32 395.491 311.48ZM408.959 317.18C408.119 317.18 407.366 317.04 406.699 316.76C406.032 316.467 405.506 316.067 405.119 315.56C404.732 315.04 404.519 314.447 404.479 313.78H406.359C406.412 314.327 406.666 314.773 407.119 315.12C407.586 315.467 408.192 315.64 408.939 315.64C409.632 315.64 410.179 315.487 410.579 315.18C410.979 314.873 411.179 314.487 411.179 314.02C411.179 313.54 410.966 313.187 410.539 312.96C410.112 312.72 409.452 312.487 408.559 312.26C407.746 312.047 407.079 311.833 406.559 311.62C406.052 311.393 405.612 311.067 405.239 310.64C404.879 310.2 404.699 309.627 404.699 308.92C404.699 308.36 404.866 307.847 405.199 307.38C405.532 306.913 406.006 306.547 406.619 306.28C407.232 306 407.932 305.86 408.719 305.86C409.932 305.86 410.912 306.167 411.659 306.78C412.406 307.393 412.806 308.233 412.859 309.3H411.039C410.999 308.727 410.766 308.267 410.339 307.92C409.926 307.573 409.366 307.4 408.659 307.4C408.006 307.4 407.486 307.54 407.099 307.82C406.712 308.1 406.519 308.467 406.519 308.92C406.519 309.28 406.632 309.58 406.859 309.82C407.099 310.047 407.392 310.233 407.739 310.38C408.099 310.513 408.592 310.667 409.219 310.84C410.006 311.053 410.646 311.267 411.139 311.48C411.632 311.68 412.052 311.987 412.399 312.4C412.759 312.813 412.946 313.353 412.959 314.02C412.959 314.62 412.792 315.16 412.459 315.64C412.126 316.12 411.652 316.5 411.039 316.78C410.439 317.047 409.746 317.18 408.959 317.18ZM417.348 308.06C417.708 307.433 418.242 306.913 418.948 306.5C419.668 306.073 420.502 305.86 421.448 305.86C422.422 305.86 423.302 306.093 424.088 306.56C424.888 307.027 425.515 307.687 425.968 308.54C426.422 309.38 426.648 310.36 426.648 311.48C426.648 312.587 426.422 313.573 425.968 314.44C425.515 315.307 424.888 315.98 424.088 316.46C423.302 316.94 422.422 317.18 421.448 317.18C420.515 317.18 419.688 316.973 418.968 316.56C418.262 316.133 417.722 315.607 417.348 314.98V322.2H415.528V306.04H417.348V308.06ZM424.788 311.48C424.788 310.653 424.622 309.933 424.288 309.32C423.955 308.707 423.502 308.24 422.928 307.92C422.368 307.6 421.748 307.44 421.068 307.44C420.402 307.44 419.782 307.607 419.208 307.94C418.648 308.26 418.195 308.733 417.848 309.36C417.515 309.973 417.348 310.687 417.348 311.5C417.348 312.327 417.515 313.053 417.848 313.68C418.195 314.293 418.648 314.767 419.208 315.1C419.782 315.42 420.402 315.58 421.068 315.58C421.748 315.58 422.368 315.42 422.928 315.1C423.502 314.767 423.955 314.293 424.288 313.68C424.622 313.053 424.788 312.32 424.788 311.48ZM428.364 311.48C428.364 310.36 428.591 309.38 429.044 308.54C429.497 307.687 430.117 307.027 430.904 306.56C431.704 306.093 432.591 305.86 433.564 305.86C434.524 305.86 435.357 306.067 436.064 306.48C436.771 306.893 437.297 307.413 437.644 308.04V306.04H439.484V317H437.644V314.96C437.284 315.6 436.744 316.133 436.024 316.56C435.317 316.973 434.491 317.18 433.544 317.18C432.571 317.18 431.691 316.94 430.904 316.46C430.117 315.98 429.497 315.307 429.044 314.44C428.591 313.573 428.364 312.587 428.364 311.48ZM437.644 311.5C437.644 310.673 437.477 309.953 437.144 309.34C436.811 308.727 436.357 308.26 435.784 307.94C435.224 307.607 434.604 307.44 433.924 307.44C433.244 307.44 432.624 307.6 432.064 307.92C431.504 308.24 431.057 308.707 430.724 309.32C430.391 309.933 430.224 310.653 430.224 311.48C430.224 312.32 430.391 313.053 430.724 313.68C431.057 314.293 431.504 314.767 432.064 315.1C432.624 315.42 433.244 315.58 433.924 315.58C434.604 315.58 435.224 315.42 435.784 315.1C436.357 314.767 436.811 314.293 437.144 313.68C437.477 313.053 437.644 312.327 437.644 311.5ZM441.88 311.5C441.88 310.367 442.106 309.38 442.56 308.54C443.013 307.687 443.64 307.027 444.44 306.56C445.253 306.093 446.18 305.86 447.22 305.86C448.566 305.86 449.673 306.187 450.54 306.84C451.42 307.493 452 308.4 452.28 309.56H450.32C450.133 308.893 449.766 308.367 449.22 307.98C448.686 307.593 448.02 307.4 447.22 307.4C446.18 307.4 445.34 307.76 444.7 308.48C444.06 309.187 443.74 310.193 443.74 311.5C443.74 312.82 444.06 313.84 444.7 314.56C445.34 315.28 446.18 315.64 447.22 315.64C448.02 315.64 448.686 315.453 449.22 315.08C449.753 314.707 450.12 314.173 450.32 313.48H452.28C451.986 314.6 451.4 315.5 450.52 316.18C449.64 316.847 448.54 317.18 447.22 317.18C446.18 317.18 445.253 316.947 444.44 316.48C443.64 316.013 443.013 315.353 442.56 314.5C442.106 313.647 441.88 312.647 441.88 311.5ZM464.708 311.1C464.708 311.447 464.688 311.813 464.648 312.2H455.888C455.955 313.28 456.321 314.127 456.988 314.74C457.668 315.34 458.488 315.64 459.448 315.64C460.235 315.64 460.888 315.46 461.408 315.1C461.941 314.727 462.315 314.233 462.528 313.62H464.488C464.195 314.673 463.608 315.533 462.728 316.2C461.848 316.853 460.755 317.18 459.448 317.18C458.408 317.18 457.475 316.947 456.648 316.48C455.835 316.013 455.195 315.353 454.728 314.5C454.261 313.633 454.028 312.633 454.028 311.5C454.028 310.367 454.255 309.373 454.708 308.52C455.161 307.667 455.795 307.013 456.608 306.56C457.435 306.093 458.381 305.86 459.448 305.86C460.488 305.86 461.408 306.087 462.208 306.54C463.008 306.993 463.621 307.62 464.048 308.42C464.488 309.207 464.708 310.1 464.708 311.1ZM462.828 310.72C462.828 310.027 462.675 309.433 462.368 308.94C462.061 308.433 461.641 308.053 461.108 307.8C460.588 307.533 460.008 307.4 459.368 307.4C458.448 307.4 457.661 307.693 457.008 308.28C456.368 308.867 456.001 309.68 455.908 310.72H462.828Z" fill="black"/>
<path d="M511.21 175.418C429.532 175.418 364.189 224.045 275.581 224.045C186.972 224.045 246.375 282.496 247.86 319.825C249.345 357.155 222.119 411.185 234.989 456.374C247.86 501.563 288.451 517.772 282.016 584.573C275.581 651.374 423.097 590.958 498.34 625.341C573.583 659.724 699.813 600.782 756.74 590.958C813.667 581.134 922.076 612.079 974.549 625.341C1027.02 638.603 1027.02 625.341 1068.11 590.958C1109.19 556.575 1068.11 540.857 1068.11 456.374C1068.11 371.891 1097.31 348.805 1107.21 319.825C1117.11 290.846 1122.56 238.78 1051.77 224.045C980.984 209.309 982.964 186.715 933.957 175.418C884.95 164.121 782.976 224.045 712.683 224.045C642.39 224.045 592.888 175.418 511.21 175.418Z" stroke="#731094" stroke-width="70"/>
<path d="M518.624 188.32C439.988 188.32 377.079 233.579 291.771 233.579C206.463 233.579 263.653 287.981 265.083 322.725C266.512 357.469 240.3 407.757 252.692 449.816C265.083 491.875 304.162 506.961 297.967 569.135C291.771 631.309 433.793 575.078 506.233 607.079C578.674 639.08 700.202 584.221 755.009 575.078C809.816 565.935 914.188 594.736 964.705 607.079C1015.22 619.422 1015.22 607.079 1054.78 575.078C1094.34 543.077 1054.78 528.447 1054.78 449.816C1054.78 371.184 1082.9 349.697 1092.43 322.725C1101.96 295.752 1107.2 247.293 1039.05 233.579C970.901 219.864 972.807 198.834 925.626 188.32C878.444 177.805 780.268 233.579 712.593 233.579C644.919 233.579 597.26 188.32 518.624 188.32Z" stroke="#47ABC2" stroke-width="70"/>
<path d="M527.34 210.175C453.959 210.175 395.254 250.487 315.646 250.487C236.038 250.487 289.406 298.943 290.741 329.89C292.075 360.837 267.614 405.628 279.178 443.089C290.741 480.551 327.209 493.988 321.427 549.367C315.646 604.745 448.177 554.66 515.777 583.163C583.377 611.667 696.784 562.804 747.929 554.66C799.073 546.516 896.47 572.169 943.612 583.163C990.754 594.158 990.754 583.163 1027.67 554.66C1064.58 526.157 1027.67 513.126 1027.67 443.089C1027.67 373.052 1053.91 353.914 1062.8 329.89C1071.7 305.866 1076.59 262.703 1012.99 250.487C949.394 238.272 951.173 219.541 907.144 210.175C863.115 200.81 771.5 250.487 708.347 250.487C645.195 250.487 600.721 210.175 527.34 210.175Z" stroke="#FF0A81" stroke-width="70"/>
<rect x="317" y="246" width="691" height="298" rx="67" fill="white"/>
<path d="M537.131 232.031C469.557 232.031 415.499 267.396 342.191 267.396C268.884 267.396 318.029 309.906 319.257 337.055C320.486 364.204 297.962 403.498 308.609 436.363C319.257 469.228 352.839 481.016 347.515 529.598C342.191 578.181 464.233 534.242 526.483 559.248C588.733 584.254 693.164 541.387 740.261 534.242C787.358 527.098 877.046 549.603 920.457 559.248C963.868 568.893 963.868 559.248 997.86 534.242C1031.85 509.237 997.86 497.805 997.86 436.363C997.86 374.921 1022.02 358.131 1030.21 337.055C1038.4 315.979 1042.91 278.113 984.345 267.396C925.781 256.68 927.419 240.247 886.875 232.031C846.331 223.815 761.967 267.396 703.812 267.396C645.658 267.396 604.704 232.031 537.131 232.031Z" stroke="white" stroke-width="70"/>
</svg>
