<svg width="284" height="479" viewBox="0 0 284 479" fill="none" xmlns="http://www.w3.org/2000/svg">
<rect x="53.5" y="186.5" width="200" height="17" rx="1.5" fill="#BF7148" stroke="black" stroke-width="3"/>
<rect x="71.5" y="71.5" width="164" height="112" fill="url(#paint0_linear_133_1655)" stroke="black" stroke-width="3"/>
<path d="M129.53 68.8035C129.53 64.2957 128.558 59.8623 128.067 55.3231C127.393 49.0893 127.569 42.3111 125.559 36.2834C124.718 33.7588 124.093 31.1398 123.428 28.5505C122.831 26.2315 122.509 23.1766 121.254 21.1102C120.15 19.2914 119.705 17.0863 118.621 15.3001C117.834 14.0047 117.413 11.7917 115.987 10.9529C114.793 10.2502 113.936 8.58384 112.79 7.69253C111.657 6.8116 110.164 6.79802 109.028 6.16685C106.709 4.87886 101.153 6.23643 99.2465 7.29544C96.6127 8.75867 94.8721 9.6281 93.4991 12.3741C92.3937 14.5849 91.9107 18.1759 91.9107 20.6504" stroke="#939C3F" stroke-width="8" stroke-linecap="round"/>
<path d="M150.597 69.5559C150.597 68.2312 150.846 67.3471 151.266 66.0866C151.722 64.7184 152.226 63.0791 152.854 61.823C154.386 58.7605 156.121 55.519 158.497 53.0033C160.436 50.9507 162.196 49.5376 164.6 48.1128C165.899 47.3432 167.871 47.3847 169.323 46.9006C170.8 46.4083 172.13 46.0722 173.587 45.6675C176.717 44.7979 180.284 44.727 183.535 44.727C186.039 44.727 188.779 44.4123 191.038 45.6675C194.863 47.7923 198.867 49.6038 201.384 53.3795" stroke="#939C3F" stroke-width="8" stroke-linecap="round"/>
<path d="M128.402 65.4176C128.402 62.3996 127.783 61.6777 125.768 59.7747C124.041 58.1429 120.529 58.2699 118.328 58.2699C111.223 58.2699 105.191 65.255 104.701 72.1055C104.579 73.8143 104.11 75.8942 103.656 77.5395C103.222 79.1125 103.573 81.1818 103.573 82.8062C103.573 87.1722 104.249 90.9004 105.37 95.1371C106.113 97.9416 106.368 100.643 106.875 103.497C107.68 108.023 106.365 112.601 106.206 117.04C106.13 119.181 105.157 120.927 104.618 122.976C104.033 125.198 103.584 127.471 102.904 129.664C101.435 134.396 98.8922 138.749 96.4251 142.998C92.9241 149.027 88.3883 154.036 84.3032 159.634C82.8255 161.659 81.7354 163.884 80.1651 165.862C79.0555 167.259 77.1494 168.449 75.7343 169.54C74.5113 170.484 73.5543 171.741 72.2649 172.633C71.1081 173.434 69.6373 174.05 68.5866 174.891C67.3381 175.889 63.8306 177.785 62.2749 177.9C58.6014 178.172 53.5371 179.657 50.5292 181.662" stroke="#939C3F" stroke-width="8" stroke-linecap="round"/>
<path d="M49.0244 181.286C46.7843 183.277 44.2915 184.698 41.9602 186.553C38.229 189.521 34.7368 192.725 31.1132 195.811C25.9472 200.212 20.5937 205.45 17.4448 211.591C16.0184 214.372 14.0381 217.4 14.0381 220.62C14.0381 223.056 13.6619 225.415 13.6619 227.851C13.6619 233.898 19.3442 237.716 24.9478 237.716C30.479 237.716 33.9179 225.231 27.5812 223.42C22.2676 221.902 16.6376 219.824 11.8645 224.256C10.2522 225.753 8.54892 226.881 7.64279 228.979C6.63655 231.31 5.90121 233.563 5.21841 236.002C4.68286 237.914 4.63322 239.761 4.63322 241.728C4.63322 244.936 4.19102 248.521 5.46921 251.551C8.71132 259.236 16.5873 264.912 24.1954 267.728C28.7171 269.401 33.2384 270.068 38.0311 270.068C42.3443 270.068 47.0633 269.532 51.3233 270.277C55.2906 270.972 59.2852 270.821 63.2989 270.821C65.3955 270.821 67.7561 270.673 69.7151 271.573C73.4376 273.284 77.2571 274.824 79.6634 278.324C81.8209 281.462 82.9016 285.434 83.8434 289.066C84.7113 292.414 85.8916 295.044 85.8916 298.576C85.8916 303.009 86.3773 307.74 84.3868 311.826C81.1164 318.539 77.419 324.652 71.617 329.486C64.9933 335.006 58.0188 341.749 49.4006 343.719C46.9359 344.283 43.8793 343.803 41.3332 343.803C38.4727 343.803 37.4232 342.778 35.1887 341.169C33.0936 339.661 35.5895 335.012 36.6099 333.562C38.6982 330.594 41.6851 329.456 44.8862 328.212C53.4883 324.866 64.6302 327.97 68.7956 336.467C70.219 339.371 72.2824 342.21 73.2681 345.308C74.3112 348.586 73.4771 353.182 73.4771 356.594C73.4771 361.86 73.4771 367.127 73.4771 372.394C73.4771 375.967 73.3959 378.575 71.7842 381.799C70.3513 384.665 69.1323 387.614 67.0818 390.075" stroke="#939C3F" stroke-width="8" stroke-linecap="round"/>
<path d="M70.4675 382.175C70.4675 386.607 69.1494 391.091 66.6638 394.819C64.3449 398.298 61.5041 401.13 58.8055 404.287C57.2152 406.147 55.7285 408.461 53.8313 410.013C51.3173 412.07 48.5596 413.677 46.4328 416.158C45.2053 417.59 44.5706 419.431 43.3605 420.944C42.0341 422.602 40.4337 424.143 39.2433 425.897C37.8852 427.899 36.7416 430.196 35.0215 431.916C31.7047 435.233 30.692 441.408 31.5312 445.94C32.578 451.592 37.0446 457.007 40.748 461.26C42.9976 463.842 46.7303 468.124 50.341 468.679C54.1765 469.269 57.7409 470.463 61.4179 471.689C66.6039 473.417 74.3233 475.746 79.8515 474.134C89.8173 471.227 99.5813 467.423 101.504 455.888C102.247 451.429 101.761 445.868 97.9299 442.826C95.4871 440.886 92.6969 440.485 89.6744 440.485C86.8415 440.485 85.5461 440.618 83.6344 442.742C82.1064 444.44 80.6248 447.774 80.6248 450.078C80.6248 452.372 81.092 454.47 83.2582 455.617C84.7005 456.38 86.9756 457.318 88.525 456.285" stroke="#939C3F" stroke-width="8" stroke-linecap="round"/>
<path d="M228.094 466.443C228.094 463.172 230.705 460.22 231.187 456.954C231.967 451.665 231.96 446.953 230.727 441.698C228.943 434.092 226.152 426.483 225.168 418.708C224.34 412.171 223.185 405.234 224.52 398.707C225.56 393.621 227.718 388.836 230.163 384.265C233.507 378.013 239.072 373.714 242.974 367.963C245.188 364.701 247.172 361.132 248.032 357.262C249.024 352.8 248.811 348.269 248.785 343.719C248.758 339.072 249.091 332.989 247.405 328.546C246.317 325.677 243.941 323.478 242.41 320.876C241.092 318.636 239.68 316.496 238.272 314.313C236.91 312.203 234.882 310.613 233.36 308.608C231.886 306.665 230.39 304.722 228.867 302.818C227.831 301.523 226.757 300.722 225.293 299.955C223.262 298.891 221.598 296.72 220.006 295.127C216.726 291.847 212.598 289.49 208.991 286.621C200.982 280.25 199.356 268.739 197.831 259.368C197.162 255.258 197.157 251.186 196.305 247.1C195.041 241.03 191.592 236.143 187.841 231.32" stroke="#939C3F" stroke-width="8" stroke-linecap="round"/>
<path d="M192.731 238.092C190.474 237.476 189.392 234.143 188.133 232.449C186.34 230.035 186.336 227.249 186.336 224.34C186.336 219.996 187.792 215.618 189.722 211.758C191.514 208.173 193.194 203.866 195.783 200.806C198.492 197.605 201.912 193.972 205.689 192.008C207.663 190.981 210.69 189.953 212.293 188.434C216.144 184.786 216.549 181.45 217.56 176.396" stroke="#939C3F" stroke-width="8" stroke-linecap="round"/>
<path d="M202.889 194.453C202.889 198.104 203.052 200.873 204.602 204.255C205.592 206.415 206.847 208.569 208.531 210.253C210.201 211.923 212.23 212.983 213.965 214.58C220.051 220.178 228.315 222.186 234.865 227.099C236.706 228.479 237.984 229.506 239.568 231.09C241.042 232.565 242.414 234.711 243.727 236.399C244.583 237.5 247.187 241.342 248.408 241.478C250.597 241.721 252.666 244.065 254.427 245.24" stroke="#939C3F" stroke-width="8" stroke-linecap="round"/>
<path d="M216.432 181.286C216.518 179.811 217.773 178.618 217.936 177.148C218.059 176.043 218.604 174.811 218.877 173.72C219.84 169.87 220.194 165.608 220.194 161.64C220.194 153.711 222.543 145.129 225.084 137.647C226.066 134.755 227.102 131.116 229.306 128.911C231.834 126.383 234.135 123.991 236.286 121.095C238.598 117.983 239.181 114.241 240.048 110.561C241.195 105.701 241.731 101.439 240.132 96.6421" stroke="#939C3F" stroke-width="8" stroke-linecap="round"/>
<path d="M241.261 108.304C241.261 101.02 242.113 93.0646 240.508 85.9415C239.661 82.1823 239.093 78.3229 238.335 74.5303C237.798 71.8485 236.37 69.0833 236.37 66.3375C236.37 61.9584 235.127 56.4069 232.629 52.8154C230.169 49.2787 228.518 45.3868 226.213 41.8012C225.095 40.0623 223.841 37.6625 222.158 36.4508C217.999 33.4561 213.439 32.1021 208.594 30.2854C206.981 29.6805 204.604 29.7465 202.868 29.4912C200.053 29.0773 197.118 29.3031 194.278 29.3031C190.921 29.3031 186.489 28.514 183.347 29.8883C180.59 31.0945 177.055 31.8122 174.862 34.0056C172.9 35.9671 171.298 38.1048 169.491 40.1292C167.289 42.5953 166.494 45.6722 166.021 48.8653C165.52 52.2485 164.893 55.6228 164.893 59.0226C164.893 60.8503 165.269 62.7606 165.269 64.4775C165.269 65.6889 165.505 67.7703 166.021 68.8037" stroke="#939C3F" stroke-width="8" stroke-linecap="round"/>
<ellipse cx="54.601" cy="191.378" rx="26" ry="12" transform="rotate(-45 54.601 191.378)" fill="#798139"/>
<ellipse cx="39.6713" cy="185" rx="26" ry="12" transform="rotate(-90 39.6713 185)" fill="#798139"/>
<ellipse cx="94.3923" cy="317.517" rx="26" ry="12" transform="rotate(-60 94.3923 317.517)" fill="#798139"/>
<ellipse cx="78.3204" cy="315.22" rx="26" ry="12" transform="rotate(-105 78.3204 315.22)" fill="#798139"/>
<ellipse cx="253.937" cy="117" rx="26" ry="12" transform="rotate(-90 253.937 117)" fill="#798139"/>
<ellipse cx="238.87" cy="123.047" rx="26" ry="12" transform="rotate(-135 238.87 123.047)" fill="#798139"/>
<ellipse cx="236.505" cy="181.22" rx="26" ry="12" transform="rotate(-105 236.505 181.22)" fill="#798139"/>
<ellipse cx="223.517" cy="190.96" rx="26" ry="12" transform="rotate(-150 223.517 190.96)" fill="#798139"/>
<ellipse cx="211.937" cy="59" rx="26" ry="12" transform="rotate(-90 211.937 59)" fill="#798139"/>
<ellipse cx="196.87" cy="65.0469" rx="26" ry="12" transform="rotate(-135 196.87 65.0469)" fill="#798139"/>
<ellipse cx="264.505" cy="362.22" rx="26" ry="12" transform="rotate(-105 264.505 362.22)" fill="#798139"/>
<ellipse cx="251.517" cy="371.96" rx="26" ry="12" transform="rotate(-150 251.517 371.96)" fill="#798139"/>
<ellipse cx="232.354" cy="298.22" rx="26" ry="12" transform="rotate(-105 232.354 298.22)" fill="#798139"/>
<ellipse cx="220.517" cy="307.96" rx="26" ry="12" transform="rotate(-150 220.517 307.96)" fill="#798139"/>
<ellipse cx="265.505" cy="246.22" rx="26" ry="12" transform="rotate(-105 265.505 246.22)" fill="#798139"/>
<ellipse cx="252.517" cy="255.96" rx="26" ry="12" transform="rotate(-150 252.517 255.96)" fill="#798139"/>
<ellipse cx="205.505" cy="242.22" rx="26" ry="12" transform="rotate(-105 205.505 242.22)" fill="#798139"/>
<ellipse cx="192.517" cy="251.96" rx="26" ry="12" transform="rotate(-150 192.517 251.96)" fill="#798139"/>
<ellipse cx="117.11" cy="118.12" rx="26" ry="12" transform="rotate(-96.0525 117.11 118.12)" fill="#798139"/>
<ellipse cx="102.764" cy="125.722" rx="26" ry="12" transform="rotate(-141.053 102.764 125.722)" fill="#798139"/>
<ellipse cx="98.3923" cy="30.5165" rx="26" ry="12" transform="rotate(-60 98.3923 30.5165)" fill="#798139"/>
<ellipse cx="82.3204" cy="28.22" rx="26" ry="12" transform="rotate(-105 82.3204 28.22)" fill="#798139"/>
<ellipse cx="76.3923" cy="399.517" rx="26" ry="12" transform="rotate(-60 76.3923 399.517)" fill="#798139"/>
<ellipse cx="60.3204" cy="397.22" rx="26" ry="12" transform="rotate(-105 60.3204 397.22)" fill="#798139"/>
<rect x="123" y="70" width="53" height="3" fill="black"/>
<rect x="147" y="73" width="10" height="2" fill="#BE5219"/>
<defs>
<linearGradient id="paint0_linear_133_1655" x1="153.5" y1="70" x2="153.5" y2="185" gradientUnits="userSpaceOnUse">
<stop stop-color="#BE5219"/>
<stop offset="0.786458" stop-color="#CC794D"/>
</linearGradient>
</defs>
</svg>
