<svg width="337" height="260" viewBox="0 0 337 260" fill="none" xmlns="http://www.w3.org/2000/svg">
<g filter="url(#filter0_d_129_13)">
<circle cx="224.722" cy="124.265" r="102.044" fill="#54563F"/>
<circle cx="224.457" cy="124" r="97.0998" stroke="#817A7A" stroke-width="1.5"/>
<circle cx="224.494" cy="124.037" r="91.9556" stroke="#817A7A" stroke-width="1.5"/>
<circle cx="224.494" cy="124.037" r="81.4778" stroke="#817A7A" stroke-width="1.5"/>
<circle cx="224.457" cy="124" r="75.0935" stroke="#817A7A" stroke-width="1.5"/>
<path d="M293.263 124C293.263 162.442 262.449 193.592 224.457 193.592C186.464 193.592 155.651 162.442 155.651 124C155.651 85.5575 186.464 54.4081 224.457 54.4081C262.449 54.4081 293.263 85.5575 293.263 124Z" stroke="#817A7A" stroke-width="1.5"/>
<circle cx="224.722" cy="124.265" r="87.1722" stroke="#817A7A" stroke-width="1.5"/>
<circle cx="224.85" cy="124.393" r="40.0831" fill="#737373"/>
<circle cx="224.457" cy="124" r="7.46645" fill="#111010"/>
<rect x="6" y="3" width="242" height="242" fill="#C4C4C4" stroke="black" stroke-width="4"/>
</g>
<defs>
<filter id="filter0_d_129_13" x="0" y="0" width="336.766" height="260" filterUnits="userSpaceOnUse" color-interpolation-filters="sRGB">
<feFlood flood-opacity="0" result="BackgroundImageFix"/>
<feColorMatrix in="SourceAlpha" type="matrix" values="0 0 0 0 0 0 0 0 0 0 0 0 0 0 0 0 0 0 127 0" result="hardAlpha"/>
<feOffset dx="3" dy="6"/>
<feGaussianBlur stdDeviation="3.5"/>
<feComposite in2="hardAlpha" operator="out"/>
<feColorMatrix type="matrix" values="0 0 0 0 0 0 0 0 0 0 0 0 0 0 0 0 0 0 0.25 0"/>
<feBlend mode="normal" in2="BackgroundImageFix" result="effect1_dropShadow_129_13"/>
<feBlend mode="normal" in="SourceGraphic" in2="effect1_dropShadow_129_13" result="shape"/>
</filter>
</defs>
</svg>
