<svg width="325" height="251" viewBox="0 0 325 251" fill="none" xmlns="http://www.w3.org/2000/svg">
<g filter="url(#filter0_d_120_38)">
<circle cx="216.647" cy="119.755" r="98.3111" fill="#111010"/>
<circle cx="216.391" cy="119.5" r="93.52" stroke="#817A7A" stroke-width="1.5"/>
<circle cx="216.427" cy="119.536" r="88.5639" stroke="#817A7A" stroke-width="1.5"/>
<circle cx="216.427" cy="119.536" r="78.4694" stroke="#817A7A" stroke-width="1.5"/>
<circle cx="216.391" cy="119.5" r="72.3187" stroke="#817A7A" stroke-width="1.5"/>
<path d="M282.652 119.5C282.652 156.521 252.978 186.518 216.391 186.518C179.804 186.518 150.13 156.521 150.13 119.5C150.13 82.4789 179.804 52.4817 216.391 52.4817C252.978 52.4817 282.652 82.4789 282.652 119.5Z" stroke="#817A7A" stroke-width="1.5"/>
<circle cx="216.647" cy="119.755" r="83.9556" stroke="#817A7A" stroke-width="1.5"/>
<circle cx="216.77" cy="119.879" r="38.6166" fill="#737373"/>
<circle cx="216.391" cy="119.5" r="7.19329" fill="#111010"/>
<rect x="6" y="3" width="233" height="233" fill="#C4C4C4" stroke="black" stroke-width="4"/>
</g>
<defs>
<filter id="filter0_d_120_38" x="0" y="0" width="324.958" height="251" filterUnits="userSpaceOnUse" color-interpolation-filters="sRGB">
<feFlood flood-opacity="0" result="BackgroundImageFix"/>
<feColorMatrix in="SourceAlpha" type="matrix" values="0 0 0 0 0 0 0 0 0 0 0 0 0 0 0 0 0 0 127 0" result="hardAlpha"/>
<feOffset dx="3" dy="6"/>
<feGaussianBlur stdDeviation="3.5"/>
<feComposite in2="hardAlpha" operator="out"/>
<feColorMatrix type="matrix" values="0 0 0 0 0 0 0 0 0 0 0 0 0 0 0 0 0 0 0.25 0"/>
<feBlend mode="normal" in2="BackgroundImageFix" result="effect1_dropShadow_120_38"/>
<feBlend mode="normal" in="SourceGraphic" in2="effect1_dropShadow_120_38" result="shape"/>
</filter>
</defs>
</svg>
